<?xml version="1.0" encoding="utf-8"?>
<svg xmlns="http://www.w3.org/2000/svg" width="61.667" height="49.333" viewBox="0 0 61.667 49.333">
  <path id="Path_111" data-name="Path 111" d="M57.5,10.167H32.833L26.667,4H8.167A6.185,6.185,0,0,0,2,10.167v37a6.185,6.185,0,0,0,6.167,6.167H57.5a6.185,6.185,0,0,0,6.167-6.167V16.333A6.185,6.185,0,0,0,57.5,10.167Zm0,37H8.167v-37H24.108l6.167,6.167H57.5ZM36.163,34.957l-2.127,9.127,8.047-4.718,8.048,4.718L48,34.957,55.1,28.821l-9.343-.8-3.669-8.6-3.669,8.6-9.343.8Z" transform="translate(-2 -4)" fill="#ff7a11"/>
</svg>
