<?xml version="1.0" encoding="utf-8"?><svg xmlns="http://www.w3.org/2000/svg" width="61.44" height="76.232" viewBox="0 0 61.44 76.232">
  <g id="Group_276" data-name="Group 276" transform="translate(-73 -28.893)">
    <path id="Path_119" data-name="Path 119" d="M305.378,51.25l8.783-8.783a7.542,7.542,0,1,0-1.828-1.97l-8.854,8.854Z" transform="translate(-191.788 0)" fill="#ff7a11"/>
    <circle id="Ellipse_16" data-name="Ellipse 16" cx="7.67" cy="7.67" r="7.67" transform="translate(85.073 64.264) rotate(-9.217)" fill="#ff7a11"/>
    <path id="Path_120" data-name="Path 120" d="M158.114,100.014v19.248h9.4V100.014a10.121,10.121,0,0,1-4.7,1.128A10.648,10.648,0,0,1,158.114,100.014Zm4.758-19.584a10.35,10.35,0,0,1,9.654,14.1,25.847,25.847,0,0,0,26.45-4.94L162.532,53.144a25.525,25.525,0,0,0-6.373,13.708,26.107,26.107,0,0,0,2.222,14.6A10.294,10.294,0,0,1,162.872,80.43Z" transform="translate(-68.998 -20.18)" fill="#ff7a11"/>
    <rect id="Rectangle_207" data-name="Rectangle 207" width="41.633" height="3.357" transform="translate(73 101.768)" fill="#ff7a11"/>
  </g>
</svg>
