<?xml version="1.0" encoding="utf-8"?><svg xmlns="http://www.w3.org/2000/svg" width="56.718" height="57.001" viewBox="0 0 56.718 57.001">
  <path id="Path_134" data-name="Path 134" d="M49.529,0a1.782,1.782,0,0,0-1.245.522L35.363,13.463,31.4,9.567a1.782,1.782,0,0,0-3.034,1.385l.877,14.987a1.782,1.782,0,0,0,1.677,1.67l15.07.884a1.782,1.782,0,0,0,1.364-3.041l-3.98-3.973-.07-.07L56.236,8.482a1.782,1.782,0,0,0,0-2.519L50.816.522A1.782,1.782,0,0,0,49.529,0Zm-38.9,28.506a1.782,1.782,0,0,0-1.183,3.047l3.973,3.973.07.063L.56,48.523a1.782,1.782,0,0,0,0,2.519l5.427,5.434a1.782,1.782,0,0,0,2.526,0l12.92-12.941,3.966,3.9a1.782,1.782,0,0,0,3.027-1.378l-.877-14.994a1.782,1.782,0,0,0-1.677-1.67l-15.063-.884a1.783,1.783,0,0,0-.181,0Z" transform="translate(-0.039)" fill="#ff7a11"/>
</svg>
