<?xml version="1.0" encoding="utf-8"?><svg xmlns="http://www.w3.org/2000/svg" width="64.571" height="58.324" viewBox="0 0 64.571 58.324">
  <path id="path7" d="M16.063,3.211A5.8,5.8,0,0,0,10.27,9,5.713,5.713,0,0,0,14.9,14.563V38.678H5.218A4.222,4.222,0,0,0,1,42.9V55.308a4.233,4.233,0,0,0,4.218,4.227H59.352a4.23,4.23,0,0,0,4.218-4.227V42.9a4.222,4.222,0,0,0-4.218-4.218H17.222V14.563A5.717,5.717,0,0,0,21.857,9,5.8,5.8,0,0,0,16.063,3.211Zm0,2.317A3.476,3.476,0,1,1,12.587,9,3.48,3.48,0,0,1,16.063,5.529ZM5.218,41H59.352a1.9,1.9,0,0,1,1.9,1.9V55.308a1.909,1.909,0,0,1-1.9,1.91H5.218a1.909,1.909,0,0,1-1.9-1.91V42.9A1.9,1.9,0,0,1,5.218,41Zm39.758,6.771a1.39,1.39,0,1,0,1.385,1.394A1.395,1.395,0,0,0,44.977,47.767Zm-35.866.181v2.317H27.65V47.948Zm35.866.281a.928.928,0,1,1-.932.932A.931.931,0,0,1,44.977,48.229Z" transform="translate(0 -2.211)" fill="#ff7a11" stroke="#ff7a11" stroke-width="2"/>
</svg>
