<?xml version="1.0" encoding="utf-8"?><svg xmlns="http://www.w3.org/2000/svg" width="47.858" height="54.756" viewBox="0 0 47.858 54.756">
  <g id="Layer_2" data-name="Layer 2" transform="translate(-2.89 -1)">
    <path id="Path_116" data-name="Path 116" d="M31.9,38.278H10V26.122a3.942,3.942,0,0,1,3.942-3.942H27.96A3.942,3.942,0,0,1,31.9,26.122ZM13.65,34.628h14.6V26.122a.292.292,0,0,0-.292-.292H13.942a.292.292,0,0,0-.292.292Z" transform="translate(5.867 17.478)" fill="#ff7a11"/>
    <path id="Path_117" data-name="Path 117" d="M46.494,55.756H7.143A4.253,4.253,0,0,1,2.89,51.5V5.253A4.253,4.253,0,0,1,7.143,1H33.9a4.216,4.216,0,0,1,2.939,1.168L49.451,14.306a4.2,4.2,0,0,1,1.3,3.121V51.5A4.253,4.253,0,0,1,46.494,55.756ZM7.143,4.65a.6.6,0,0,0-.6.6V51.5a.6.6,0,0,0,.6.6H46.494a.6.6,0,0,0,.6-.6V17.427a.584.584,0,0,0-.183-.42L34.32,4.815a.584.584,0,0,0-.42-.164Z" transform="translate(0 0)" fill="#ff7a11"/>
    <path id="Path_118" data-name="Path 118" d="M20.951,29.9A10.951,10.951,0,1,1,31.9,18.951,10.951,10.951,0,0,1,20.951,29.9Zm0-18.252a7.3,7.3,0,1,0,7.3,7.3A7.3,7.3,0,0,0,20.951,11.65Z" transform="translate(5.867 5.777)" fill="#ff7a11"/>
  </g>
</svg>
