<?xml version="1.0" encoding="utf-8"?><svg xmlns="http://www.w3.org/2000/svg" width="52.3" height="46.696" viewBox="0 0 52.3 46.696">
  <g id="layer1" transform="translate(-2 -1024.362)">
    <path id="rect4767" d="M4.736,4A2.651,2.651,0,0,0,2,6.535V48.164A2.648,2.648,0,0,0,4.736,50.7H51.564A2.648,2.648,0,0,0,54.3,48.164V6.535A2.651,2.651,0,0,0,51.564,4Zm0,1.868H51.564c.552,0,.868.345.868.668V48.164c0,.323-.316.664-.868.664H4.736c-.552,0-.868-.341-.868-.664V6.535C3.868,6.213,4.184,5.868,4.736,5.868ZM8.205,7.736a2.682,2.682,0,0,0-1.664.551,2.047,2.047,0,0,0-.806,1.587V37.964l-.015.007L5.736,38v3.094a2.047,2.047,0,0,0,.806,1.587,2.679,2.679,0,0,0,1.664.547H48.094a2.679,2.679,0,0,0,1.664-.547,2.047,2.047,0,0,0,.806-1.587V9.874a2.047,2.047,0,0,0-.806-1.587,2.682,2.682,0,0,0-1.664-.551Zm0,1.868h9.157l2.955,4.659L7.6,21.916V9.874c0-.019,0-.044.091-.117A.863.863,0,0,1,8.205,9.6Zm11.368,0h8.482l-6.136,3.7Zm12.1,0h16.42a.863.863,0,0,1,.511.153c.095.075.091.1.091.113v1.857l-28.1,17.161L13.911,20.3ZM48.7,13.919V32.674L37.61,20.69ZM12.3,21.27l6.691,8.6L7.6,36.822V24.1Zm23.684.412L48.7,35.425v5.662c0,.019,0,.044-.091.117a.865.865,0,0,1-.511.15H8.205a.865.865,0,0,1-.511-.15c-.095-.072-.091-.1-.091-.113V39.011Zm-6.4,8.843a.989.989,0,0,0-.547.157l-5.228,3.451a.934.934,0,0,0,.047,1.587l4.852,2.8a.934.934,0,0,0,1.4-.752l.376-6.253a.934.934,0,0,0-.9-.992Zm-1.076,2.743-.171,2.882L26.1,34.86ZM22.546,45.093v1.868H33.753V45.093Z" transform="translate(0 1020.362)" fill="#ff7a11"/>
  </g>
</svg>
