<?xml version="1.0" encoding="utf-8"?>
<svg xmlns="http://www.w3.org/2000/svg" width="62.258" height="62.231" viewBox="0 0 62.258 62.231">
  <g id="Group_297" data-name="Group 297" transform="translate(-7.465 -5.43)">
    <path id="Path_163" data-name="Path 163" d="M197.772,134.091H190.9v-9.3a.952.952,0,1,0-1.9,0v10.219a1.008,1.008,0,0,0,.986.982h7.786a.952.952,0,0,0,0-1.9Z" transform="translate(-160.13 -101.582)" fill="#ff7a11" stroke="#ff7a11" stroke-width="1"/>
    <path id="Path_164" data-name="Path 164" d="M63.189,32.506,51.514,26.779A24.492,24.492,0,1,0,33.427,50.624,13.156,13.156,0,0,0,38,56.906l9.678,6.6a.966.966,0,0,0,1.088,0l9.707-6.6a13.314,13.314,0,0,0,5.289-9.95V33.373A.993.993,0,0,0,63.189,32.506ZM27,49.545A22.572,22.572,0,1,1,49.542,25.817l-.9-.441a.966.966,0,0,0-.85,0l-2.076,1.017A18.727,18.727,0,1,0,27,45.7a18.507,18.507,0,0,0,5.737-.9v2.15a9.688,9.688,0,0,0,.179,1.806A22.623,22.623,0,0,1,27,49.545Zm6.277-17.059a.965.965,0,0,0-.54.867v9.411A16.627,16.627,0,0,1,27,43.77a16.8,16.8,0,1,1,16.8-16.8c0,.121,0,.241,0,.362Zm28.55,14.47A11.536,11.536,0,0,1,57.38,55.31l-9.149,6.23-9.14-6.23a11.51,11.51,0,0,1-4.424-8.354v-13l13.579-6.637,13.579,6.657Z" transform="translate(5.465 3.46)" fill="#ff7a11" stroke="#ff7a11" stroke-width="1"/>
  </g>
</svg>
