<?xml version="1.0" encoding="utf-8"?><svg id="Group_273" data-name="Group 273" xmlns="http://www.w3.org/2000/svg" width="73.537" height="73.537" viewBox="0 0 73.537 73.537">
  <path id="Path_112" data-name="Path 112" d="M0,0H73.537V73.537H0Z" fill="none"/>
  <path id="Path_113" data-name="Path 113" d="M9.064,67.409h6.128v6.128H9.064Zm12.256,0h6.128v6.128H21.32Zm12.256,0H39.7v6.128H33.576ZM36.64.031,12.128,0A6.146,6.146,0,0,0,6,6.128V55.153a6.146,6.146,0,0,0,6.128,6.128H36.64a6.146,6.146,0,0,0,6.128-6.128V6.128A6.12,6.12,0,0,0,36.64.031Zm0,55.122H12.128V52.089H36.64Zm0-9.192H12.128V15.32H36.64Zm0-36.769H12.128V6.128H36.64Z" transform="translate(12.384)" fill="#ff7a11"/>
</svg>
