<?xml version="1.0" encoding="utf-8"?><svg xmlns="http://www.w3.org/2000/svg" width="41.817" height="62.553" viewBox="0 0 41.817 62.553">
  <path id="XMLID_1871_" d="M50.372,48.731c-3.131,0-5.775,2.366-6.888,4.453H28.315a1.669,1.669,0,0,1-1.879-1.809V35.789H43.484a7.234,7.234,0,0,0,6.888,4.523,7.376,7.376,0,1,0,0-14.751,7.355,7.355,0,0,0-6.888,4.662H26.437V15.263l-.139-.07A7.394,7.394,0,1,0,16,8.305a7.427,7.427,0,0,0,4.731,6.819l.139.07V51.375a7.224,7.224,0,0,0,7.445,7.375H43.484a7.405,7.405,0,1,0,6.888-10.019Zm0-18.995a3.2,3.2,0,1,1-3.27,3.2A3.208,3.208,0,0,1,50.372,29.736ZM23.375,5.1a3.252,3.252,0,0,1,3.27,3.2,3.271,3.271,0,0,1-6.54,0A3.3,3.3,0,0,1,23.375,5.1Zm27,54.411a3.2,3.2,0,1,1,3.27-3.2A3.3,3.3,0,0,1,50.372,59.515Z" transform="translate(-16 -0.998)" fill="#ff7a11"/>
</svg>
