<?xml version="1.0" encoding="utf-8"?><svg xmlns="http://www.w3.org/2000/svg" width="63.288" height="55.385" viewBox="0 0 63.288 55.385">
  <g id="layer1" transform="translate(-12.552 -1044.271)">
    <path id="path6183" d="M14.589,23.908a2.038,2.038,0,0,0-2.037,2.037v51.31a2.038,2.038,0,0,0,2.037,2.037H73.8a2.038,2.038,0,0,0,2.037-2.037V25.946A2.038,2.038,0,0,0,73.8,23.908H32.353v4.075h7.831V39.762h4.075V27.983H71.765v23.55H60.049V35.815H55.974V51.533H48.143v4.075H71.765v19.61h-3.82V61.466a2.038,2.038,0,0,0-2.037-2.037H50.117a2.038,2.038,0,0,0-2.037,2.037V75.219h-3.82V47.848H40.184v27.37H16.626V59.556H32.353V55.481H16.626v-27.5h7.831V23.908ZM52.154,63.5H63.87V75.219H52.154Z" transform="translate(0 1020.362)" fill="#ff7a11"/>
  </g>
</svg>
