<?xml version="1.0" encoding="utf-8"?><svg xmlns="http://www.w3.org/2000/svg" width="63.953" height="48.342" viewBox="0 0 63.953 48.342">
  <g id="Group_267" data-name="Group 267" transform="translate(-872.001 -498.999)">
    <path id="Path_102" data-name="Path 102" d="M899.457,501.891V499h-7.009A1.447,1.447,0,0,0,891,500.446v1.445h8.456Z" fill="#ff7a11"/>
    <path id="Path_103" data-name="Path 103" d="M934.507,499H905.065v2.891H933.06v16.731H925v2.894h8.06v13.93h-2.712v-9.769a1.447,1.447,0,0,0-1.447-1.447H925v2.9h2.448v8.322H925v2.894h9.507a1.447,1.447,0,0,0,1.447-1.447V500.447A1.447,1.447,0,0,0,934.507,499Z" fill="#ff7a11"/>
    <path id="Path_104" data-name="Path 104" d="M916.954,509.447A1.447,1.447,0,0,0,915.507,508H886.065v2.891h5.563v8.37h2.894v-8.37H914.06v16.731h-8.322V516.457h-2.89v11.165h-5.567v2.894H914.06v13.93h-2.712v-9.769a1.447,1.447,0,0,0-1.447-1.447H898.683a1.447,1.447,0,0,0-1.447,1.447v9.769h-2.714V525.005h-2.894v19.441H874.894V533.32h11.171v-2.894H874.894V510.891h5.563V508h-7.009A1.447,1.447,0,0,0,872,509.446v36.445a1.447,1.447,0,0,0,1.444,1.45h42.062a1.447,1.447,0,0,0,1.447-1.447V509.447Zm-16.824,35v-8.322h8.318v8.322Z" fill="#ff7a11"/>
  </g>
</svg>
