<?xml version="1.0" encoding="utf-8"?><svg xmlns="http://www.w3.org/2000/svg" width="49.998" height="61.108" viewBox="0 0 49.998 61.108">
  <path id="Path_105" data-name="Path 105" d="M29.971,46.248a2.777,2.777,0,0,0-.444-.333,1.555,1.555,0,0,0-.472-.25,1.666,1.666,0,0,0-.528-.167,2.583,2.583,0,0,0-1.583.167,2.5,2.5,0,0,0-1.5,1.5,2.333,2.333,0,0,0-.222,1.055,2.778,2.778,0,0,0,.194,1.056,4.055,4.055,0,0,0,.611.917A2.778,2.778,0,0,0,28,51a2.333,2.333,0,0,0,1.056-.222,3.194,3.194,0,0,0,.917-.583,2.872,2.872,0,0,0,0-3.944ZM18.416,34.8a1.555,1.555,0,0,0-.472-.25,1.667,1.667,0,0,0-.528-.222,2.389,2.389,0,0,0-1.083,0l-.5.167-.5.25-.417.333a2.917,2.917,0,0,0-.806,2.028,2.778,2.778,0,0,0,.806,1.972,3.194,3.194,0,0,0,.917.583,2.778,2.778,0,0,0,3.833-2.555,2.917,2.917,0,0,0-.806-1.972Zm.444,11.444a3.184,3.184,0,0,0-2.528-.806l-.5.167a2.111,2.111,0,0,0-.5.25,4.39,4.39,0,0,0-.417.333,2.778,2.778,0,0,0-.583.917,2.611,2.611,0,0,0,0,2.111,3.194,3.194,0,0,0,.583.917A2.778,2.778,0,0,0,16.888,51a2.333,2.333,0,0,0,1.056-.222,3.194,3.194,0,0,0,.917-.583,3.194,3.194,0,0,0,.583-.917,2.611,2.611,0,0,0,0-2.111,2.778,2.778,0,0,0-.583-.917Zm8.083-11.694a2.778,2.778,0,0,0-.917.583,2.917,2.917,0,0,0-.806,1.972,2.778,2.778,0,0,0,3.833,2.555,3.194,3.194,0,0,0,.917-.583,2.778,2.778,0,0,0,.806-1.972,2.917,2.917,0,0,0-.806-1.972,2.778,2.778,0,0,0-3.028-.583ZM41.081,46.248a3.194,3.194,0,0,0-.917-.583,2.69,2.69,0,0,0-3.611,1.5,2.611,2.611,0,0,0,0,2.111,3.194,3.194,0,0,0,.583.917A2.778,2.778,0,0,0,39.109,51a2.333,2.333,0,0,0,1.055-.222,3.194,3.194,0,0,0,.917-.583,2.872,2.872,0,0,0,0-3.944ZM39.109,12.111H16.888a2.778,2.778,0,0,0-2.778,2.778V26a2.778,2.778,0,0,0,2.778,2.778H39.109A2.778,2.778,0,0,0,41.887,26V14.888A2.778,2.778,0,0,0,39.109,12.111ZM36.332,23.221H19.666V17.666H36.332ZM44.665,1H11.333A8.333,8.333,0,0,0,3,9.333V53.775a8.333,8.333,0,0,0,8.333,8.333H44.665A8.333,8.333,0,0,0,53,53.775V9.333A8.333,8.333,0,0,0,44.665,1Zm2.778,52.775a2.778,2.778,0,0,1-2.778,2.778H11.333a2.778,2.778,0,0,1-2.778-2.778V9.333a2.778,2.778,0,0,1,2.778-2.778H44.665a2.778,2.778,0,0,1,2.778,2.778ZM40.637,34.8a1.556,1.556,0,0,0-.472-.25,1.666,1.666,0,0,0-.528-.167,2.389,2.389,0,0,0-1.083,0l-.5.167-.5.25-.417.333a2.917,2.917,0,0,0-.806,1.972,2.778,2.778,0,0,0,3.833,2.555,3.194,3.194,0,0,0,.917-.583,2.778,2.778,0,0,0,.806-1.972,2.917,2.917,0,0,0-.806-1.972Z" transform="translate(-3 -1)" fill="#ff7a11"/>
</svg>
