<?xml version="1.0" encoding="utf-8"?><svg xmlns="http://www.w3.org/2000/svg" width="62.449" height="44.606" viewBox="0 0 62.449 44.606">
  <g id="Group_268" data-name="Group 268" transform="translate(-32 -96)">
    <circle id="Ellipse_12" data-name="Ellipse 12" cx="8.921" cy="8.921" r="8.921" transform="translate(54.303 109.382)" fill="#ff7a11"/>
    <path id="Path_106" data-name="Path 106" d="M116.461,160a14.36,14.36,0,0,1,6.456-12.132l-3.226-3.417a18.348,18.348,0,0,0-2.465,2.183,19.7,19.7,0,0,0,0,26.731,18.345,18.345,0,0,0,2.465,2.183l3.226-3.417A14.359,14.359,0,0,1,116.461,160Z" transform="translate(-68.848 -41.7)" fill="#ff7a11"/>
    <path id="Path_107" data-name="Path 107" d="M328.141,160a14.36,14.36,0,0,1-6.456,12.132l3.226,3.417a18.348,18.348,0,0,0,2.465-2.183,19.7,19.7,0,0,0,0-26.731,18.347,18.347,0,0,0-2.465-2.183l-3.226,3.417A14.359,14.359,0,0,1,328.141,160Z" transform="translate(-249.304 -41.701)" fill="#ff7a11"/>
    <path id="Path_108" data-name="Path 108" d="M36.461,118.3a24.078,24.078,0,0,1,8.958-18.932L42.236,96a27.572,27.572,0,0,0-2.4,2.255,28.4,28.4,0,0,0-5.734,9.011,29.988,29.988,0,0,0,0,22.075,28.4,28.4,0,0,0,5.734,9.011,27.618,27.618,0,0,0,2.4,2.255l3.182-3.371A24.079,24.079,0,0,1,36.461,118.3Z" transform="translate(0 0)" fill="#ff7a11"/>
    <path id="Path_109" data-name="Path 109" d="M392.695,118.3a24.078,24.078,0,0,1-8.958,18.932l3.182,3.324a27.024,27.024,0,0,0,2.4-2.208,28.4,28.4,0,0,0,5.734-9.011,29.988,29.988,0,0,0,0-22.075,28.4,28.4,0,0,0-5.734-9.011,27.533,27.533,0,0,0-2.4-2.255l-3.182,3.371A24.078,24.078,0,0,1,392.695,118.3Z" transform="translate(-302.707 0)" fill="#ff7a11"/>
  </g>
</svg>
