<?xml version="1.0" encoding="utf-8"?><svg xmlns="http://www.w3.org/2000/svg" width="60.064" height="68.324" viewBox="0 0 60.064 68.324">
  <path id="path7" d="M38.532,5.844,9.321,22.709,9,22.892V55.965L38.532,73.014,67.743,56.148l.321-.183V22.892ZM37.89,7.7v9.54L14.778,30.578l5.778,3.335V48.552L10.284,54.483V23.634Zm1.284,0L66.78,23.634V54.481L56.508,48.55V33.914l5.778-3.335L39.174,17.234ZM37.89,18.716v2.34l-8.973,5.181L20.895,28.53Zm1.284,0,17,9.816-8.023-2.295-8.973-5.181Zm-.642,3.453,8.08,4.665L38.532,31.5l-8.08-4.667Zm-9.45,5.354L37.89,32.61v9.831l-20.2-11.661Zm18.9,0L59.37,30.779l-20.2,11.661V32.61ZM21.84,34.654,37.89,43.92V57.879l-4.958-2.861V45.58l1.284.74v-1.48l-8.845-5.108v1.482l1.284.742v9.437L21.84,48.612Zm33.384,0V48.612l-16.05,9.266V43.92Zm-1.068,3.6-5.031,2.9v5.718l5.031-2.9Zm-29.733.928-.008.01h.028Zm28.449,1.3v2.754l-2.463,1.419V41.9Zm-6.207,2.039-5.028,2.9v5.718l5.028-2.9ZM27.939,42.7l3.709,2.142v9.434l-3.709-2.142Zm17.442,2.046V47.5l-2.46,1.422V46.165ZM21.143,49.693,37.89,59.361v11.8L10.926,55.592Zm34.779,0,10.217,5.9L39.174,71.16v-11.8Z" transform="translate(-8.5 -5.267)" fill="#ff7a11" stroke="#ff7a11" stroke-width="1"/>
</svg>
