<?xml version="1.0" encoding="utf-8"?><svg xmlns="http://www.w3.org/2000/svg" width="67" height="67" viewBox="0 0 67 67">
  <path id="Layer_1" d="M57.375,9.25H45V1H23V9.25H10.625V24.375H1v19.25h9.625V58.75H23V67H45V58.75H57.375V43.625H67V24.375H57.375ZM25.75,3.75h16.5V17.5H25.75Zm-22,23.375h16.5v13.75H3.75ZM42.25,64.25H25.75V50.5h16.5ZM54.625,56H45V47.75H23V56H13.375V43.625H23V24.375H13.375V12H23v8.25H45V12h9.625V24.375H45v19.25h9.625ZM64.25,40.875H47.75V27.125h16.5Z" transform="translate(-0.5 -0.5)" fill="#ff7a11" stroke="#ff7a11" stroke-width="1"/>
</svg>
