<?xml version="1.0" encoding="utf-8"?><svg xmlns="http://www.w3.org/2000/svg" width="50.064" height="58.379" viewBox="0 0 50.064 58.379">
  <g id="XMLID_74_" transform="translate(-38 -0.1)">
    <path id="XMLID_170_" d="M346.243,74.134h5.93L345,67.2v5.85A1.208,1.208,0,0,0,346.243,74.134Z" transform="translate(-271.989 -59.448)" fill="none"/>
    <path id="XMLID_174_" d="M109.692,54.686a5.732,5.732,0,0,1-5.8-5.656V40.168l-24.7-.068A1.2,1.2,0,0,0,78,41.24V88.2a1.274,1.274,0,0,0,1.243,1.163H117.9a1.1,1.1,0,0,0,1.038-1.163V54.686ZM105.6,63.7a2.281,2.281,0,0,1,0,4.562H85.641a2.281,2.281,0,0,1,0-4.562ZM85.527,54.572H98.756a2.281,2.281,0,1,1,0,4.562H85.527a2.281,2.281,0,1,1,0-4.562ZM111.3,77.38H85.641a2.281,2.281,0,0,1,0-4.562H111.3a2.281,2.281,0,1,1,0,4.562Z" transform="translate(-35.438 -35.438)" fill="none"/>
    <path id="XMLID_488_" d="M86.947,14.891,73.068,1.457A4.583,4.583,0,0,0,69.886.168L43.748.1A5.729,5.729,0,0,0,38,5.8V52.765a5.84,5.84,0,0,0,5.8,5.714h38.66a5.666,5.666,0,0,0,5.6-5.725V17.617A3.751,3.751,0,0,0,86.947,14.891ZM73.011,7.752l7.173,6.934h-5.93a1.209,1.209,0,0,1-1.243-1.095Zm9.454,46.164H43.8a1.265,1.265,0,0,1-1.243-1.163V5.8a1.2,1.2,0,0,1,1.186-1.14l24.7.068v8.861a5.74,5.74,0,0,0,5.8,5.656H83.5V52.753A1.1,1.1,0,0,1,82.465,53.916Z" transform="translate(0 0)" fill="#ff7a11"/>
    <path id="XMLID_490_" d="M125,249.281a2.288,2.288,0,0,0,2.281,2.281h19.957a2.281,2.281,0,1,0,0-4.562H127.281A2.288,2.288,0,0,0,125,249.281Z" transform="translate(-77.078 -218.743)" fill="#ff7a11"/>
    <path id="XMLID_491_" d="M126.281,171.562H139.51a2.281,2.281,0,0,0,0-4.562H126.281a2.281,2.281,0,0,0,0,4.562Z" transform="translate(-76.192 -147.866)" fill="#ff7a11"/>
    <path id="XMLID_492_" d="M152.94,327H127.281a2.281,2.281,0,1,0,0,4.562H152.94a2.281,2.281,0,1,0,0-4.562Z" transform="translate(-77.078 -289.62)" fill="#ff7a11"/>
  </g>
</svg>
