<?xml version="1.0" encoding="utf-8"?><svg xmlns="http://www.w3.org/2000/svg" width="64.419" height="64.444" viewBox="0 0 64.419 64.444">
  <g id="layer1" transform="translate(-3.992 -1024.341)">
    <path id="path21887" d="M67.048,3.979v.063h-.037a1.342,1.342,0,0,0-.4.073q-.045.017-.089.037h-.005L21.591,17.568a1.342,1.342,0,0,0-.561,2.233l7.9,7.9,5.283,5.283a1.342,1.342,0,0,0,1.85.273h.005a1.342,1.342,0,0,0,.173-.147,2.3,2.3,0,0,1,3.139,3.024l-.131.152a1.34,1.34,0,0,0-.079.11h-.005a1.342,1.342,0,0,0-.126.225h-.005q-.024.057-.042.115H38.99q-.016.06-.026.121a1.342,1.342,0,0,0,.508,1.352l5.267,5.267,7.9,7.9a1.342,1.342,0,0,0,2.233-.566L68.311,5.845l.01-.026q.011-.029.021-.058a1.341,1.341,0,0,0,.037-.136q.014-.065.021-.131,0-.021.005-.042,0-.05.005-.1,0-.018,0-.037,0-.047-.005-.094,0-.021-.005-.042-.006-.047-.016-.094t-.026-.1l-.005-.026-.01-.031A1.34,1.34,0,0,0,68.3,4.8q-.019-.045-.042-.089l-.016-.031q-.025-.043-.052-.084l-.021-.031-.016-.026q-.032-.046-.068-.089t-.089-.094a1.341,1.341,0,0,0-.1-.089q-.038-.03-.079-.058l-.031-.026q-.051-.034-.1-.063h-.021q-.057-.026-.115-.047t-.089-.031H67.41q-.047-.017-.094-.031h-.037a1.341,1.341,0,0,0-.136-.026q-.047,0-.094,0ZM61.258,8.528,35.364,30.35l-4.533-4.538-6.31-6.31Zm2.667,2.662L52.951,47.937l-6.315-6.315L42.1,37.084Zm-8.044,5.361L41.9,33.133a5.422,5.422,0,0,0-2.615-2.594Zm-34.63,9.983a1.342,1.342,0,0,0-.922.409l-2.316,2.311a1.342,1.342,0,1,0,1.9,1.9l2.316-2.311a1.342,1.342,0,0,0-.975-2.306Zm4.659,4.643-.01.005a1.342,1.342,0,0,0-.917.409l-2.316,2.316a1.342,1.342,0,1,0,1.9,1.9l2.316-2.317a1.342,1.342,0,0,0-.97-2.311Zm-11.6,2.306a1.342,1.342,0,0,0-.922.4l-9,8.993a1.343,1.343,0,1,0,1.9,1.9l9-9a1.342,1.342,0,0,0-.975-2.3Zm4.648,4.648a1.342,1.342,0,0,0-.922.409L13.4,43.168a1.342,1.342,0,1,0,1.9,1.9l4.633-4.628a1.342,1.342,0,0,0-.975-2.306Zm20.9,7-.005.005a1.342,1.342,0,0,0-.922.409l-2.316,2.316a1.342,1.342,0,1,0,1.9,1.9l2.316-2.317a1.342,1.342,0,0,0-.97-2.311ZM44.5,49.782a1.342,1.342,0,0,0-.922.409l-2.316,2.316a1.342,1.342,0,1,0,1.9,1.9l2.316-2.317a1.342,1.342,0,0,0-.975-2.306Zm-11.6,2.3a1.342,1.342,0,0,0-.922.4l-4.633,4.633a1.342,1.342,0,1,0,1.9,1.9l4.633-4.633a1.342,1.342,0,0,0-.975-2.3Zm4.648,4.648a1.342,1.342,0,0,0-.922.409l-8.993,8.993a1.342,1.342,0,1,0,1.9,1.9l8.993-8.993a1.342,1.342,0,0,0-.975-2.306Z" transform="translate(0 1020.362)" fill="#ff7a11" fill-rule="evenodd"/>
  </g>
</svg>
