<?xml version="1.0" encoding="utf-8"?><svg xmlns="http://www.w3.org/2000/svg" width="59.143" height="55.025" viewBox="0 0 59.143 55.025">
  <path id="path7" d="M15.794,1.975A21.147,21.147,0,0,0,6.6,4.046l1.84,3.8a17.041,17.041,0,0,1,14.687.017l1.84-3.8A21.1,21.1,0,0,0,15.794,1.975Zm-.033,8.441a12.614,12.614,0,0,0-5.5,1.246l1.84,3.8a8.5,8.5,0,0,1,7.3-.008l1.84-3.8a12.6,12.6,0,0,0-5.487-1.238Zm.025,8.63A6.327,6.327,0,0,0,13.673,31.34v4.538H5.9a4.9,4.9,0,0,0-4.9,4.9V52.091A4.909,4.909,0,0,0,5.9,57h49.34a4.909,4.909,0,0,0,4.9-4.909V40.779a4.905,4.905,0,0,0-4.9-4.9H17.9V31.331a6.322,6.322,0,0,0-2.112-12.286Zm0,4.233A2.118,2.118,0,0,1,17.9,25.391a2.083,2.083,0,0,1-1.741,2.038h-.743a2.09,2.09,0,0,1-1.741-2.038A2.116,2.116,0,0,1,15.786,23.278ZM9.449,44.327h16.9v4.224H9.449Zm29.555,0h4.274v4.224H39Z" transform="translate(-1 -1.975)" fill="#ff7a11"/>
</svg>
