<?xml version="1.0" encoding="utf-8"?><svg xmlns="http://www.w3.org/2000/svg" width="65.103" height="65.186" viewBox="0 0 65.103 65.186">
  <path id="Path_94" data-name="Path 94" d="M68.031,28.586l-1.22-1.5-8.425-8.418-2.727,2.58,5.163,5.3H37.575a5.584,5.584,0,0,0-2.171-.405,8.326,8.326,0,0,0-5.016,1.765V10.114l5.293,5.432,2.853-2.72-8.7-8.558-1.36-1.353-1.22,1.353-8.7,8.432,2.72,2.713,5.171-5.163V32.934a7.981,7.981,0,0,0-.269,2.576A8.6,8.6,0,0,0,27.8,40.674H10.14l5.432-5.44-2.72-2.72-8.7,8.565-1.22,1.353L4.148,43.8,12.58,52.35l2.713-2.573L10.14,44.47H33.112a6.819,6.819,0,0,0,2.3.405,8.2,8.2,0,0,0,5.163-1.758V60.771l-5.3-5.3-2.713,2.713,8.558,8.558,1.367,1.36,1.353-1.36L52.4,58.324,49.685,55.6l-5.163,5.163V38.083a7.858,7.858,0,0,0,.413-2.58,8.733,8.733,0,0,0-1.773-5.163H60.83l-5.3,5.44,2.72,2.713,8.565-8.551,1.216-1.356ZM40.575,35.378v.266a5,5,0,0,1-1.493,3.671c-.273.266-.545.4-.678.678h-.133a4.623,4.623,0,0,1-2.72.678,6.028,6.028,0,0,1-3.125-.815,4.48,4.48,0,0,1-.822-.678,2.041,2.041,0,0,1-.4-.545,5.317,5.317,0,0,1-.815-2.853V34.413a5.017,5.017,0,0,1,1.08-2.44l.133-.133c.28-.273.545-.405.822-.678a5.94,5.94,0,0,1,3.125-.822,5.774,5.774,0,0,1,2.72.545c0,.133,0,.133.133.133.273.14.405.413.678.678a5.053,5.053,0,0,1,1.493,3.681Z" transform="translate(-2.928 -2.916)" fill="#ff7a11"/>
</svg>
