<?xml version="1.0" encoding="utf-8"?><svg id="Group_264" data-name="Group 264" xmlns="http://www.w3.org/2000/svg" width="65.557" height="53.265" viewBox="0 0 65.557 53.265">
  <rect id="Rectangle_200" data-name="Rectangle 200" width="16.389" height="4.097" transform="translate(49.167 24.584)" fill="#ff7a11"/>
  <path id="Path_95" data-name="Path 95" d="M45.07,17.292A6.146,6.146,0,1,0,39.3,9.1H0v4.1H39.3A6.135,6.135,0,0,0,45.07,17.292Zm0-8.195a2.049,2.049,0,1,1-2.049,2.049A2.049,2.049,0,0,1,45.07,9.1Z" transform="translate(0 15.486)" fill="#ff7a11"/>
  <path id="Path_96" data-name="Path 96" d="M24.584,10a6.135,6.135,0,0,0-5.769,4.1H0v4.1H18.815a6.11,6.11,0,0,0,11.538,0h35.2V14.1h-35.2A6.135,6.135,0,0,0,24.584,10Zm0,8.195a2.049,2.049,0,1,1,2.049-2.049A2.049,2.049,0,0,1,24.584,18.195Z" transform="translate(0 30.973)" fill="#ff7a11"/>
  <path id="Path_97" data-name="Path 97" d="M18.061,4.1a6.11,6.11,0,0,0-11.538,0H0v4.1H6.523a6.11,6.11,0,0,0,11.538,0h47.5V4.1Zm-5.769,4.1a2.049,2.049,0,1,1,2.049-2.049A2.049,2.049,0,0,1,12.292,8.195Z" fill="#ff7a11"/>
</svg>
