<?xml version="1.0" encoding="utf-8"?><svg xmlns="http://www.w3.org/2000/svg" width="55.012" height="48.898" viewBox="0 0 55.012 48.898">
  <path id="Path_98" data-name="Path 98" d="M44.259,13.168H37.884l3.952-3.952A3.056,3.056,0,1,0,37.514,4.9L26.184,16.225,37.514,27.554a3.056,3.056,0,1,0,4.321-4.321l-3.952-3.952h6.375c4.215,0,7.641,4.114,7.641,9.169a9.18,9.18,0,0,1-9.169,9.169,3.056,3.056,0,1,0,0,6.112A15.3,15.3,0,0,0,58.012,28.449C58.012,20.023,51.841,13.168,44.259,13.168ZM19.177,29.345a3.053,3.053,0,0,0,0,4.321l3.952,3.952H16.753c-4.215,0-7.641-4.114-7.641-9.169a9.18,9.18,0,0,1,9.169-9.169,3.056,3.056,0,1,0,0-6.112A15.3,15.3,0,0,0,3,28.449C3,36.875,9.17,43.73,16.753,43.73h6.375l-3.952,3.952A3.056,3.056,0,0,0,23.5,52L34.827,40.674,23.5,29.345a3.053,3.053,0,0,0-4.321,0Z" transform="translate(-3 -4)" fill="#ff7a11"/>
</svg>
