<?xml version="1.0" encoding="utf-8"?><svg xmlns="http://www.w3.org/2000/svg" width="60" height="72.103" viewBox="0 0 60 72.103">
  <g id="_Group_" data-name="&lt;Group&gt;" transform="translate(-52.9 -12)">
    <path id="_Compound_Path_" data-name="&lt;Compound Path&gt;" d="M111.363,34.788a2.961,2.961,0,0,0,0-4.182l-2.246-2.246a2.961,2.961,0,0,0-4.182,0l-2.749,2.764a29.855,29.855,0,0,0-14.837-6.68V21.162h1.566a3.057,3.057,0,0,0,3.015-3.015V14.97A3.028,3.028,0,0,0,88.915,12h-12A3.028,3.028,0,0,0,73.9,14.97v3.177a3.067,3.067,0,0,0,3.015,3.015h1.566v3.281A29.994,29.994,0,1,0,112.9,54.118a29.69,29.69,0,0,0-4.729-16.138Zm-4.345-4.33,2.246,2.246-2.823,2.823c-.665-.828-1.36-1.626-2.113-2.394ZM76.855,18.207V14.956H88.974v3.251Zm4.581,2.956h2.956v3c-.591-.03-1-.03-1.478-.03s-.887.015-1.478.03Zm1.478,59.985a27.037,27.037,0,1,1,27.029-27.029A27.06,27.06,0,0,1,82.915,81.147Z" fill="#ff7a11"/>
    <path id="_Compound_Path_2" data-name="&lt;Compound Path&gt;" d="M116.236,134h-.281a24.109,24.109,0,0,0-23.793,23.556,1.473,1.473,0,0,0-.163.665,1.388,1.388,0,0,0,.177.695,24.1,24.1,0,0,0,23.7,23.231.975.975,0,0,0,.207.015.721.721,0,0,0,.177-.015,24.074,24.074,0,0,0-.03-48.147Zm1.33,45.162v-2.749a1.478,1.478,0,1,0-2.956,0v2.734a21.142,21.142,0,0,1-19.433-19.433h2.586a1.478,1.478,0,1,0,0-2.956H95.147a21.16,21.16,0,0,1,19.463-19.744v2.749a1.478,1.478,0,1,0,2.956,0V137a21.165,21.165,0,0,1,19.758,19.758h-2.911a1.478,1.478,0,1,0,0,2.956h2.882A21.144,21.144,0,0,1,117.566,179.162Z" transform="translate(-33.321 -103.971)" fill="#ff7a11"/>
    <path id="_Path_" data-name="&lt;Path&gt;" d="M255.885,224.146h-6.931v-9.768a1.478,1.478,0,0,0-2.956,0v11.261a1.432,1.432,0,0,0,1.433,1.463h8.438a1.478,1.478,0,0,0,.015-2.956Z" transform="translate(-164.561 -171.211)" fill="#ff7a11"/>
  </g>
</svg>
