<?xml version="1.0" encoding="utf-8"?><svg xmlns="http://www.w3.org/2000/svg" width="63.448" height="67.98" viewBox="0 0 63.448 67.98">
  <path id="Path_99" data-name="Path 99" d="M35.99,1a6.815,6.815,0,0,0-6.8,6.8c0,.115.03.222.035.336L12.3,19.668a5.586,5.586,0,0,0-2.372-.54A5.66,5.66,0,0,0,7.692,29.989L6.368,48.75a5.657,5.657,0,1,0,5.262,9.533l8.506,5.1A5.649,5.649,0,0,0,31.263,64.71L54.95,59.425a5.652,5.652,0,1,0,4.97-8.56l-1.943-16.61a5.643,5.643,0,0,0-2.726-10.6,5.582,5.582,0,0,0-.934.093L42.545,9.5a6.667,6.667,0,0,0,.243-1.7A6.815,6.815,0,0,0,35.99,1Zm0,2.266A4.532,4.532,0,1,1,31.458,7.8,4.515,4.515,0,0,1,35.99,3.266Zm-6.223,7.241a6.829,6.829,0,0,0,3.1,3.284L27.533,29.378a5.637,5.637,0,0,0-3.908,2.133L15.145,27a5.569,5.569,0,0,0-.943-5.882Zm11.711,1.261L52.1,24.625a5.675,5.675,0,0,0-2.514,4.7,5.561,5.561,0,0,0,.089.859L33.662,34.393a5.654,5.654,0,0,0-3.824-4.753l5.183-15.145a6.69,6.69,0,0,0,.969.1A6.786,6.786,0,0,0,41.478,11.768ZM9.931,21.394a3.4,3.4,0,1,1-3.4,3.4A3.382,3.382,0,0,1,9.931,21.394Zm45.32,4.532a3.4,3.4,0,1,1-3.4,3.4A3.382,3.382,0,0,1,55.251,25.926ZM13.839,28.869l8.768,4.665a5.588,5.588,0,0,0-.212,1.456,5.678,5.678,0,0,0,3.386,5.174L25.39,57.69a5.671,5.671,0,0,0-4.771,3.341L12.9,56.4a5.584,5.584,0,0,0,.434-2.151,5.679,5.679,0,0,0-4.687-5.568L9.927,30.458h0A5.634,5.634,0,0,0,13.839,28.869Zm14.22,2.722a3.4,3.4,0,1,1-3.4,3.4A3.382,3.382,0,0,1,28.059,31.591Zm22.408.73a5.665,5.665,0,0,0,4.784,2.669c.18,0,.35-.041.527-.058L57.69,51.268a5.676,5.676,0,0,0-3.572,5.249,5.541,5.541,0,0,0,.075.757l-22.833,5.09a5.665,5.665,0,0,0-3.709-4.373l.385-17.336h.022A5.67,5.67,0,0,0,33.4,36.8ZM7.665,50.852a3.4,3.4,0,1,1-3.4,3.4A3.382,3.382,0,0,1,7.665,50.852Zm52.118,2.266a3.4,3.4,0,1,1-3.4,3.4A3.382,3.382,0,0,1,59.783,53.118Zm-33.99,6.8a3.4,3.4,0,1,1-3.4,3.4A3.382,3.382,0,0,1,25.793,59.916Z" transform="translate(-2 -1)" fill="#ff7a11"/>
</svg>
