<?xml version="1.0" encoding="utf-8"?><svg xmlns="http://www.w3.org/2000/svg" width="55.291" height="40.957" viewBox="0 0 55.291 40.957">
  <g id="Group_298" data-name="Group 298" transform="translate(-24 -84)">
    <path id="Path_166" data-name="Path 166" d="M55.953,106.522h46a.953.953,0,0,0,.953-.953V84.953A.953.953,0,0,0,101.95,84h-46a.953.953,0,0,0-.953.953v20.615A.953.953,0,0,0,55.953,106.522Zm.953-20.615H101v18.708H56.907Z" transform="translate(-27.306)" fill="#ff7a11"/>
    <path id="Path_167" data-name="Path 167" d="M51.646,135a.953.953,0,0,0-.953.953v8.58a.953.953,0,1,0,1.907,0v-8.58A.953.953,0,0,0,51.646,135Zm5,0a.953.953,0,0,0-.953.953v8.58a.953.953,0,0,0,1.907,0v-8.58A.953.953,0,0,0,56.65,135Zm5,0a.953.953,0,0,0-.953.953v8.58a.953.953,0,0,0,1.907,0v-8.58A.953.953,0,0,0,61.655,135Zm5,0a.953.953,0,0,0-.953.953v8.58a.953.953,0,1,0,1.907,0v-8.58A.953.953,0,0,0,66.66,135Zm-30.029,0a.953.953,0,0,0-.953.953v8.58a.953.953,0,0,0,1.907,0v-8.58A.953.953,0,0,0,36.631,135Zm5,0a.953.953,0,0,0-.953.953v8.58a.953.953,0,0,0,1.907,0v-8.58A.953.953,0,0,0,41.636,135Zm5,0a.953.953,0,0,0-.953.953v8.58a.953.953,0,1,0,1.907,0v-8.58A.953.953,0,0,0,46.641,135Zm31.7,18.47H24.953a.953.953,0,0,0-.953.953V158a.953.953,0,0,0,.953.953H78.338a.953.953,0,0,0,.953-.953v-3.575A.953.953,0,0,0,78.338,153.47Zm-.953,3.694H25.907v-1.787H77.384Zm-48.2,2.947A4.884,4.884,0,1,0,34.065,165,4.884,4.884,0,0,0,29.181,160.111Zm0,7.862A2.978,2.978,0,1,1,32.159,165,2.978,2.978,0,0,1,29.181,167.973Zm12.48-7.862A4.884,4.884,0,1,0,46.546,165,4.884,4.884,0,0,0,41.661,160.111Zm0,7.862A2.978,2.978,0,1,1,44.639,165a2.978,2.978,0,0,1-2.978,2.978Zm19.969-7.862A4.884,4.884,0,1,0,66.514,165,4.884,4.884,0,0,0,61.63,160.111Zm0,7.862A2.978,2.978,0,1,1,64.608,165,2.978,2.978,0,0,1,61.63,167.973Zm12.48-7.862A4.884,4.884,0,1,0,78.995,165,4.884,4.884,0,0,0,74.11,160.111Zm0,7.862A2.978,2.978,0,1,1,77.088,165,2.978,2.978,0,0,1,74.11,167.973Z" transform="translate(0 -44.923)" fill="#ff7a11"/>
  </g>
</svg>
