<?xml version="1.0" encoding="utf-8"?><svg xmlns="http://www.w3.org/2000/svg" width="57.275" height="51.028" viewBox="0 0 57.275 51.028">
  <g id="Group_221" data-name="Group 221" transform="translate(-14.354 -5.475)">
    <path id="Path_79" data-name="Path 79" d="M14,6V55.978H70.225V6ZM68.663,27.865H60.854V16.933h7.809Zm0-12.495H59.293V29.427h9.371v4.685H59.293v1.562h9.371V54.416h-53.1V13.809h53.1Zm-53.1-3.124V7.562h53.1v4.685Z" transform="translate(0.879 0)" fill="#ff7a11" stroke="#ff7a11" stroke-linecap="round" stroke-width="1.05"/>
    <path id="Path_80" data-name="Path 80" d="M56.97,42.011V24.826L41.645,15.978,26.319,24.826V42.011l15.326,8.848Zm-14.3,5.9V34.093l12.261-7.078V40.83ZM53.76,25.33,41.645,32.325,29.529,25.33l12.115-6.995Zm-25.4,1.686,12.261,7.078V47.912L28.362,40.834Z" transform="translate(-3.138 0.956)" fill="#ff7a11" stroke="#ff7a11" stroke-linecap="round" stroke-width="1.05"/>
  </g>
</svg>
