<?xml version="1.0" encoding="utf-8"?><svg xmlns="http://www.w3.org/2000/svg" width="42.429" height="67.39" viewBox="0 0 42.429 67.39">
  <g id="layer1" transform="translate(-5.516 -1019.862)">
    <path id="rect4461" d="M47.444,1052.519h-2.01v-31.248a1.073,1.073,0,0,0-1.037-.908H9.128A1.078,1.078,0,0,0,8.09,1021.4v31.12H6.016v2.074H8.09v31.12a1.078,1.078,0,0,0,1.037,1.037H44.4a1.078,1.078,0,0,0,1.037-1.037v-31.12h2.01Zm-4.117-30.083v30.083h0v2.075h0v30.083H27.8v-30.083h.973v-2.075H27.8v-30.083Zm-2.107,30.083H37.071v2.075H41.22Zm-6.224,0H30.847v2.075H35Zm-9.271-30.083v30.083h-1.1v2.075h1.1v30.083H10.165v-62.24Zm-3.177,30.083H18.4v2.075h4.149Zm-6.224,0H12.175v2.075h4.149Z" transform="translate(0 0)" fill="#ff7a11" stroke="#ff7a11" stroke-width="1"/>
  </g>
</svg>
