<?xml version="1.0" encoding="utf-8"?><svg xmlns="http://www.w3.org/2000/svg" width="62.377" height="64.002" viewBox="0 0 62.377 64.002">
  <g id="Group_222" data-name="Group 222" transform="translate(-0.812)">
    <path id="Path_81" data-name="Path 81" d="M62.218,31.217H60.3v-4.8a.97.97,0,0,0-.97-.969H49.52V12.125a.971.971,0,0,0-.97-.971H45.633V6.729a.97.97,0,0,0-.97-.971H42.874V.971A.971.971,0,0,0,41.9,0H22.095a.971.971,0,0,0-.97.971V5.758H19.336a.97.97,0,0,0-.97.971v4.426H15.449a.971.971,0,0,0-.97.971V25.45H4.661a.969.969,0,0,0-.969.969v4.8H1.782a.97.97,0,0,0-.97.971V63.033a.969.969,0,0,0,.97.969H62.218a.97.97,0,0,0,.97-.969V32.188A.97.97,0,0,0,62.218,31.217ZM14.479,62.063H2.752V33.156H14.48V62.063Zm0-30.846H5.631V27.389H14.48v3.828ZM23.064,1.939H40.936V5.757H23.064ZM20.306,7.7H43.695v3.457H20.306ZM37.8,62.063h-11.6V50.744a5.8,5.8,0,1,1,11.6,0V62.063Zm9.785,0H39.736V50.744a7.741,7.741,0,1,0-15.482,0V62.062H16.419V32.212c0-.01,0-.018,0-.025s0-.018,0-.027V26.445c0-.01,0-.018,0-.027s0-.016,0-.025v-13.3H47.581Zm1.94-34.674H58.36v3.828H49.521ZM61.248,62.063H49.521V33.156H61.249V62.063Z" fill="#ff7a11"/>
    <path id="Path_82" data-name="Path 82" d="M19.273,22.311h5.392a.969.969,0,0,0,.97-.969V15.949a.97.97,0,0,0-.97-.971H19.273a.97.97,0,0,0-.97.971v5.393A.971.971,0,0,0,19.273,22.311Zm.97-5.393h3.452v3.453H20.243ZM29.3,22.311H34.7a.969.969,0,0,0,.97-.969V15.949a.97.97,0,0,0-.97-.971H29.3a.97.97,0,0,0-.97.971v5.393A.97.97,0,0,0,29.3,22.311Zm.97-5.393h3.452v3.453H30.274V16.918Zm9.061,5.393h5.392a.969.969,0,0,0,.97-.969V15.949a.97.97,0,0,0-.97-.971H39.335a.97.97,0,0,0-.97.971v5.393A.97.97,0,0,0,39.335,22.311Zm.97-5.393h3.452v3.453H40.305Zm-21.032,14.8h5.392a.971.971,0,0,0,.97-.971V25.353a.97.97,0,0,0-.97-.971H19.273a.97.97,0,0,0-.97.971v5.391A.972.972,0,0,0,19.273,31.715Zm.97-5.393h3.452v3.453H20.243ZM29.3,31.715H34.7a.971.971,0,0,0,.97-.971V25.353a.97.97,0,0,0-.97-.971H29.3a.97.97,0,0,0-.97.971v5.391A.972.972,0,0,0,29.3,31.715Zm.97-5.393h3.452v3.453H30.274V26.322Zm9.061,5.393h5.392a.971.971,0,0,0,.97-.971V25.353a.97.97,0,0,0-.97-.971H39.335a.97.97,0,0,0-.97.971v5.391A.972.972,0,0,0,39.335,31.715Zm.97-5.393h3.452v3.453H40.305Zm-21.032,14.8h5.392a.97.97,0,0,0,.97-.971V34.755a.969.969,0,0,0-.97-.969H19.273a.97.97,0,0,0-.97.969v5.393A.97.97,0,0,0,19.273,41.119Zm.97-5.392h3.452V39.18H20.243ZM29.3,41.119H34.7a.97.97,0,0,0,.97-.971V34.755a.969.969,0,0,0-.97-.969H29.3a.969.969,0,0,0-.97.969v5.393A.97.97,0,0,0,29.3,41.119Zm.97-5.392h3.452V39.18H30.274V35.727Zm9.061,5.392h5.392a.97.97,0,0,0,.97-.971V34.755a.969.969,0,0,0-.97-.969H39.335a.97.97,0,0,0-.97.969v5.393A.97.97,0,0,0,39.335,41.119Zm.97-5.392h3.452V39.18H40.305Zm12.386,9.341h5.392a.97.97,0,0,0,.969-.971V38.706a.97.97,0,0,0-.969-.971H52.691a.97.97,0,0,0-.97.971V44.1A.97.97,0,0,0,52.691,45.068Zm.97-5.392h3.453v3.453H53.661Zm-.97,17.8h5.392a.969.969,0,0,0,.969-.969V51.118a.969.969,0,0,0-.969-.969H52.691a.969.969,0,0,0-.97.969v5.393A.97.97,0,0,0,52.691,57.48Zm.97-5.39h3.453v3.451H53.661ZM5.923,45.068h5.391a.97.97,0,0,0,.97-.971V38.706a.97.97,0,0,0-.97-.971H5.923a.97.97,0,0,0-.97.971V44.1A.969.969,0,0,0,5.923,45.068Zm.97-5.392h3.452v3.453H6.893Zm-.97,17.8h5.391a.97.97,0,0,0,.97-.969V51.118a.97.97,0,0,0-.97-.969H5.923a.969.969,0,0,0-.97.969v5.393A.969.969,0,0,0,5.923,57.48Zm.97-5.39h3.452v3.451H6.893Zm21.339-.527a.969.969,0,0,0-.97.969v1.939a.97.97,0,1,0,1.94,0V52.532A.969.969,0,0,0,28.232,51.563Z" fill="#ff7a11"/>
  </g>
</svg>
