<?xml version="1.0" encoding="utf-8"?><svg xmlns="http://www.w3.org/2000/svg" width="55.105" height="55.098" viewBox="0 0 55.105 55.098">
  <path id="Path_83" data-name="Path 83" d="M46.675,2.329a10.548,10.548,0,0,0-9.807,14.8L16.813,37.178a10.582,10.582,0,1,0,5.427,5.442L42.295,22.566a10.568,10.568,0,0,0,14.3-12.938l-7.334,7.334-6.114-.679-.679-6.114L49.79,2.843a10.569,10.569,0,0,0-3.115-.514ZM36.481,21.958a.961.961,0,0,1,.694,1.655l-14.7,14.7a.961.961,0,1,1-1.359-1.359l14.7-14.7a.961.961,0,0,1,.661-.293ZM12.666,40.132A6.727,6.727,0,1,1,7.813,42.1a6.726,6.726,0,0,1,4.853-1.97Z" transform="translate(-2.001 -2.327)" fill="#ff7a11"/>
</svg>
