<?xml version="1.0" encoding="utf-8"?><svg xmlns="http://www.w3.org/2000/svg" width="58.723" height="58.724" viewBox="0 0 58.723 58.724">
  <g id="Group_223" data-name="Group 223" transform="translate(-5.5 -5.5)">
    <circle id="Ellipse_8" data-name="Ellipse 8" cx="1.11" cy="1.11" r="1.11" transform="translate(11.55 10.44)" fill="#ff7a11" stroke="#ff7a11" stroke-width="1"/>
    <circle id="Ellipse_9" data-name="Ellipse 9" cx="1.11" cy="1.11" r="1.11" transform="translate(17.1 10.44)" fill="#ff7a11" stroke="#ff7a11" stroke-width="1"/>
    <circle id="Ellipse_10" data-name="Ellipse 10" cx="1.11" cy="1.11" r="1.11" transform="translate(22.65 10.44)" fill="#ff7a11" stroke="#ff7a11" stroke-width="1"/>
    <path id="Path_84" data-name="Path 84" d="M58.171,16.22H7.11a1.11,1.11,0,0,1,0-2.22H58.171a1.11,1.11,0,0,1,0,2.22ZM40.411,47.3a1.11,1.11,0,0,1-1.11-1.11v-4.44a1.11,1.11,0,1,1,2.22,0v4.44A1.11,1.11,0,0,1,40.411,47.3Zm20.1,9.99h0a1.11,1.11,0,0,1,.133,1.421,16.117,16.117,0,0,1-4.085,3.907,1.043,1.043,0,0,1-.611.222,1.11,1.11,0,0,1-.611-2.031,14.164,14.164,0,0,0,3.5-3.33,1.11,1.11,0,0,1,1.676-.189Z" transform="translate(0 0.88)" fill="#ff7a11" stroke="#ff7a11" stroke-width="1"/>
    <path id="Path_85" data-name="Path 85" d="M63.721,44.451v5.717a15.917,15.917,0,0,1-.81,5.04,1.11,1.11,0,0,1-1.832.411h0a1.11,1.11,0,0,1-.255-1.11,14.264,14.264,0,0,0,.677-4.34V44.451a1.765,1.765,0,0,0-1.487-1.82,1.643,1.643,0,0,0-1.3.422,1.676,1.676,0,0,0-.544,1.243,1.11,1.11,0,0,1-2.22,0V42.231a1.765,1.765,0,0,0-1.487-1.82,1.643,1.643,0,0,0-1.3.422,1.676,1.676,0,0,0-.544,1.243,1.11,1.11,0,1,1-2.22,0v-.955a1.765,1.765,0,0,0-1.487-1.82,1.643,1.643,0,0,0-1.3.422,1.676,1.676,0,0,0-.544,1.243,1.11,1.11,0,1,1-2.22,0v-9.99a1.665,1.665,0,0,0-1.843-1.665,1.765,1.765,0,0,0-1.487,1.82v11.5a1.11,1.11,0,0,1-2.22,0A3.33,3.33,0,0,0,35.86,39.3a1.11,1.11,0,0,0-1,1.11v9.757A13.842,13.842,0,0,0,41.021,61.69,1.11,1.11,0,0,1,39.8,63.532a16.018,16.018,0,0,1-7.16-13.32v-9.8a3.33,3.33,0,0,1,3.152-3.33,5.55,5.55,0,0,1,3.508,1.11v-7.06a4.007,4.007,0,0,1,3.485-4.04,3.874,3.874,0,0,1,4.285,3.885v6.483a3.985,3.985,0,0,1,2.065-.377A3.885,3.885,0,0,1,52,38.912a3.852,3.852,0,0,1,5.95,1.965,3.963,3.963,0,0,1,2.287-.466A4.007,4.007,0,0,1,63.721,44.451ZM7.11,30.42h0A1.11,1.11,0,0,1,6,29.31V10.44A4.44,4.44,0,0,1,10.44,6H31.53a1.11,1.11,0,1,1,0,2.22H10.44a2.22,2.22,0,0,0-2.22,2.22V29.31A1.11,1.11,0,0,1,7.11,30.42Z" transform="translate(0)" fill="#ff7a11" stroke="#ff7a11" stroke-width="1"/>
    <path id="Path_86" data-name="Path 86" d="M34.861,44.43a1.11,1.11,0,0,1-1.11,1.11H10.44A4.44,4.44,0,0,1,6,41.1V31.11A1.11,1.11,0,0,1,7.11,30h0a1.11,1.11,0,0,1,1.11,1.11V41.1a2.22,2.22,0,0,0,2.22,2.22h23.31A1.11,1.11,0,0,1,34.861,44.43Z" transform="translate(0 2.641)" fill="#ff7a11" stroke="#ff7a11" stroke-width="1"/>
    <rect id="Rectangle_192" data-name="Rectangle 192" width="2.22" height="2.22" rx="1" transform="translate(34.861 6)" fill="#ff7a11" stroke="#ff7a11" stroke-width="1"/>
    <path id="Path_87" data-name="Path 87" d="M55.98,10.44V42.076a1.11,1.11,0,1,1-2.22,0V10.44a2.22,2.22,0,0,0-2.22-2.22H37.11A1.11,1.11,0,0,1,36,7.11h0A1.11,1.11,0,0,1,37.11,6H51.54A4.44,4.44,0,0,1,55.98,10.44Z" transform="translate(3.301 0)" fill="#ff7a11" stroke="#ff7a11" stroke-width="1"/>
    <path id="Path_88" data-name="Path 88" d="M49.085,30.1H45.411a1.11,1.11,0,0,1,0-2.22h3.73a2.031,2.031,0,0,0,1.354-.511,1.576,1.576,0,0,0,.522-1.11,1.776,1.776,0,0,0-1.931-1.709H39.516a2.031,2.031,0,0,0-1.354.511,1.576,1.576,0,0,0-.522,1.11,1.776,1.776,0,0,0,1.876,1.709h.433a1.11,1.11,0,1,1,0,2.22h-.433a4.007,4.007,0,0,1-4.1-3.885,3.841,3.841,0,0,1,1.232-2.775,4.229,4.229,0,0,1,2.864-1.11h9.568a4.007,4.007,0,0,1,4.1,3.885,3.841,3.841,0,0,1-1.232,2.775A4.229,4.229,0,0,1,49.085,30.1Zm-18.1,2.22H12.11A1.11,1.11,0,0,1,11,31.21V20.11A1.11,1.11,0,0,1,12.11,19H30.98a1.11,1.11,0,0,1,1.11,1.11v11.1A1.11,1.11,0,0,1,30.98,32.32ZM13.22,30.1H29.87V21.22H13.22Zm16.65,6.66H13.22a1.11,1.11,0,0,1,0-2.22H29.87a1.11,1.11,0,1,1,0,2.22ZM23.21,41.2H13.22a1.11,1.11,0,0,1,0-2.22h9.99a1.11,1.11,0,1,1,0,2.22Z" transform="translate(0.55 1.43)" fill="#ff7a11" stroke="#ff7a11" stroke-width="1"/>
  </g>
</svg>
