<?xml version="1.0" encoding="utf-8"?><svg xmlns="http://www.w3.org/2000/svg" width="65" height="61.121" viewBox="0 0 65 61.121">
  <g id="Group_224" data-name="Group 224" transform="translate(0.5 -1.439)">
    <path id="Path_89" data-name="Path 89" d="M7.146,31.716a7.146,7.146,0,1,1,7.146-7.146A7.154,7.154,0,0,1,7.146,31.716Zm0-12.352a5.206,5.206,0,1,0,5.206,5.206A5.212,5.212,0,0,0,7.146,19.364Zm19.917-3.133a7.146,7.146,0,1,1,7.146-7.146A7.154,7.154,0,0,1,27.063,16.231Zm0-12.352a5.206,5.206,0,1,0,5.206,5.207A5.212,5.212,0,0,0,27.063,3.879ZM44.5,32.655a7.146,7.146,0,1,1,7.146-7.146A7.155,7.155,0,0,1,44.5,32.655Zm0-12.353a5.207,5.207,0,1,0,5.206,5.207A5.213,5.213,0,0,0,44.5,20.3ZM27.063,55.884a7.146,7.146,0,1,1,7.146-7.146A7.154,7.154,0,0,1,27.063,55.884Zm0-12.352a5.207,5.207,0,1,0,5.206,5.207A5.212,5.212,0,0,0,27.063,43.532ZM56.854,62.061A7.146,7.146,0,1,1,64,54.915,7.155,7.155,0,0,1,56.854,62.061Zm0-12.353a5.206,5.206,0,1,0,5.207,5.206A5.211,5.211,0,0,0,56.854,49.708Z" fill="#ff7a11" stroke="#ff7a11" stroke-width="1"/>
    <path id="Path_90" data-name="Path 90" d="M11.9,21.592a.97.97,0,0,1-.552-1.768L21.986,12.48a.97.97,0,0,1,1.1,1.6L12.446,21.421A.969.969,0,0,1,11.9,21.592Zm28.167.6a.969.969,0,0,1-.663-.262l-8.476-7.94a.97.97,0,0,1,1.325-1.416l8.476,7.94a.97.97,0,0,1-.662,1.678ZM31.586,45.515a.97.97,0,0,1-.794-1.525l9.652-13.8A.969.969,0,1,1,42.033,31.3L32.38,45.1A.965.965,0,0,1,31.586,45.515ZM50.679,55.884a1.142,1.142,0,0,1-.163-.013L32.243,52.783a.97.97,0,1,1,.323-1.912l18.273,3.088a.969.969,0,0,1-.16,1.925Z" fill="#ff7a11" stroke="#ff7a11" stroke-width="1"/>
  </g>
</svg>
