<?xml version="1.0" encoding="utf-8"?><svg xmlns="http://www.w3.org/2000/svg" width="57.384" height="57.384" viewBox="0 0 57.384 57.384">
  <g id="Group_282" data-name="Group 282" transform="translate(0.5 0.5)">
    <path id="Path_135" data-name="Path 135" d="M10.572,52.056l7.413-7.413h1.4V42.881H18.5V42H16.739v1.4L9.326,50.81H0V61.382H10.572ZM8.81,59.62H1.762V52.572H8.81Z" transform="translate(0 -4.998)" fill="#ff7a11" stroke="#ff7a11" stroke-width="1"/>
    <path id="Path_136" data-name="Path 136" d="M50.81,9.326,43.4,16.739H42V18.5h.881v.881h1.762v-1.4l7.413-7.413h9.326V0H50.81Zm1.762-7.564H59.62V8.81H52.572Z" transform="translate(-4.998)" fill="#ff7a11" stroke="#ff7a11" stroke-width="1"/>
    <path id="Path_137" data-name="Path 137" d="M24,19h3.524v1.762H24Z" transform="translate(-2.856 -2.261)" fill="#ff7a11" stroke="#ff7a11" stroke-width="1"/>
    <path id="Path_138" data-name="Path 138" d="M36,19h3.524v1.762H36Z" transform="translate(-4.284 -2.261)" fill="#ff7a11" stroke="#ff7a11" stroke-width="1"/>
    <path id="Path_139" data-name="Path 139" d="M30,19h3.524v1.762H30Z" transform="translate(-3.57 -2.261)" fill="#ff7a11" stroke="#ff7a11" stroke-width="1"/>
    <path id="Path_140" data-name="Path 140" d="M20.762,20.762h.881V19H19v2.643h1.762Z" transform="translate(-2.261 -2.261)" fill="#ff7a11" stroke="#ff7a11" stroke-width="1"/>
    <path id="Path_141" data-name="Path 141" d="M19,36h1.762v3.524H19Z" transform="translate(-2.261 -4.284)" fill="#ff7a11" stroke="#ff7a11" stroke-width="1"/>
    <path id="Path_142" data-name="Path 142" d="M19,24h1.762v3.524H19Z" transform="translate(-2.261 -2.856)" fill="#ff7a11" stroke="#ff7a11" stroke-width="1"/>
    <path id="Path_143" data-name="Path 143" d="M19,30h1.762v3.524H19Z" transform="translate(-2.261 -3.57)" fill="#ff7a11" stroke="#ff7a11" stroke-width="1"/>
    <path id="Path_144" data-name="Path 144" d="M24,43h3.524v1.762H24Z" transform="translate(-2.856 -5.117)" fill="#ff7a11" stroke="#ff7a11" stroke-width="1"/>
    <path id="Path_145" data-name="Path 145" d="M30,43h3.524v1.762H30Z" transform="translate(-3.57 -5.117)" fill="#ff7a11" stroke="#ff7a11" stroke-width="1"/>
    <path id="Path_146" data-name="Path 146" d="M36,43h3.524v1.762H36Z" transform="translate(-4.284 -5.117)" fill="#ff7a11" stroke="#ff7a11" stroke-width="1"/>
    <path id="Path_147" data-name="Path 147" d="M42.881,42.881H42v1.762h2.643V42H42.881Z" transform="translate(-4.998 -4.998)" fill="#ff7a11" stroke="#ff7a11" stroke-width="1"/>
    <path id="Path_148" data-name="Path 148" d="M43,30h1.762v3.524H43Z" transform="translate(-5.117 -3.57)" fill="#ff7a11" stroke="#ff7a11" stroke-width="1"/>
    <path id="Path_149" data-name="Path 149" d="M43,36h1.762v3.524H43Z" transform="translate(-5.117 -4.284)" fill="#ff7a11" stroke="#ff7a11" stroke-width="1"/>
    <path id="Path_150" data-name="Path 150" d="M43,24h1.762v3.524H43Z" transform="translate(-5.117 -2.856)" fill="#ff7a11" stroke="#ff7a11" stroke-width="1"/>
    <path id="Path_151" data-name="Path 151" d="M25,32.048h5.286v5.286h1.762V32.048h5.286V30.286H32.048V25H30.286v5.286H25Z" transform="translate(-2.975 -2.975)" fill="#ff7a11" stroke="#ff7a11" stroke-width="1"/>
  </g>
</svg>
