<?xml version="1.0" encoding="utf-8"?><svg id="Page-1" xmlns="http://www.w3.org/2000/svg" width="60.773" height="60.773" viewBox="0 0 60.773 60.773">
  <g id="Asset-1">
    <g id="Lager_28_kopia">
      <path id="Shape" d="M30.387,0A30.387,30.387,0,1,0,60.773,30.387,30.386,30.386,0,0,0,30.387,0Zm0,53.177a22.79,22.79,0,1,1,22.79-22.79A22.791,22.791,0,0,1,30.387,53.177Z" fill="#ff7a11"/>
      <path id="Shape-2" data-name="Shape" d="M26.6,15.962H21.27V10.628A2.628,2.628,0,0,0,18.643,8H18.59a2.628,2.628,0,0,0-2.628,2.628v5.335H10.628A2.628,2.628,0,0,0,8,18.59v.053a2.628,2.628,0,0,0,2.628,2.628h5.335V26.6a2.628,2.628,0,0,0,2.628,2.628h.053A2.628,2.628,0,0,0,21.27,26.6V21.27H26.6a2.628,2.628,0,0,0,2.628-2.628V18.59A2.628,2.628,0,0,0,26.6,15.962Z" transform="translate(11.771 11.771)" fill="#ff7a11"/>
    </g>
  </g>
</svg>
