<?xml version="1.0" encoding="utf-8"?><svg xmlns="http://www.w3.org/2000/svg" width="60.612" height="60.612" viewBox="0 0 60.612 60.612">
  <path id="Path_155" data-name="Path 155" d="M11.365,60.612H49.247A11.367,11.367,0,0,0,60.612,49.247V11.365A11.367,11.367,0,0,0,49.247,0H11.365A11.365,11.365,0,0,0,0,11.365V49.247A11.365,11.365,0,0,0,11.365,60.612ZM7.577,11.365a3.79,3.79,0,0,1,3.788-3.788H49.247a3.788,3.788,0,0,1,3.788,3.788V49.247a3.785,3.785,0,0,1-3.788,3.788H11.365a3.788,3.788,0,0,1-3.788-3.788Zm18.941,22.73H15.153V45.459H26.518Zm0-18.941H15.153V26.518H26.518Zm18.941,0H34.094V45.459H45.459Z" fill="#ff7a11"/>
</svg>
