<?xml version="1.0" encoding="utf-8"?><svg id="Group_94" data-name="Group 94" xmlns="http://www.w3.org/2000/svg" width="64" height="51.803" viewBox="0 0 64 51.803">
  <path id="Path_39" data-name="Path 39" d="M20.68,41.38a2.594,2.594,0,0,0,.25-.39l4.3,1v.12a3.24,3.24,0,0,0,1.2,2.18,3.2,3.2,0,0,0,2.03.71c.12,0,.25-.01.37-.02a3.24,3.24,0,0,0,2.54-4.68l3.52-3.38a3.275,3.275,0,1,0-1.33-1.4l-3.53,3.39a3.137,3.137,0,0,0-4.35,1.21l-4.3-1a3.272,3.272,0,0,0-1.2-2.3,3.252,3.252,0,0,0-4.06,5.08,3.191,3.191,0,0,0,2.02.71c.12,0,.25-.01.37-.02A3.358,3.358,0,0,0,20.68,41.38Zm14.75-8.14h0a1.33,1.33,0,0,1,.88-.49.757.757,0,0,1,.15-.01,1.3,1.3,0,0,1,.82.29,1.33,1.33,0,0,1,.49.88,1.313,1.313,0,0,1-.28.97,1.33,1.33,0,0,1-.88.49,1.319,1.319,0,0,1-1.18-2.13Zm-7.99,7.68a1.33,1.33,0,0,1,.88-.49.757.757,0,0,1,.15-.01,1.3,1.3,0,0,1,.82.29,1.319,1.319,0,1,1-1.85.21Zm-8.28-.76a1.33,1.33,0,0,1-.88.49,1.313,1.313,0,0,1-.97-.28,1.33,1.33,0,0,1-.49-.88,1.313,1.313,0,0,1,.28-.97,1.33,1.33,0,0,1,.88-.49.757.757,0,0,1,.15-.01,1.3,1.3,0,0,1,.82.29,1.33,1.33,0,0,1,.49.88A1.288,1.288,0,0,1,19.16,40.16ZM56.35,22.35l.03-.06a9.034,9.034,0,1,0-8.58,5.73c.01,0,.03.01.04.01h.02c.04,0,.08.01.12.01a9,9,0,0,0,8.35-5.64C56.34,22.38,56.34,22.36,56.35,22.35Zm-7.83,3.71a4.909,4.909,0,0,1-.06-3.14,2.567,2.567,0,0,0,1.86-.39,2.627,2.627,0,0,0,1.08-1.57,4.985,4.985,0,0,1,2.89,1.27A7.091,7.091,0,0,1,48.52,26.06Zm6.42-5.79a6.313,6.313,0,0,0-4.64-1.18.977.977,0,0,0-.78,1.12.677.677,0,0,1-.27.7.651.651,0,0,1-.72-.01.949.949,0,0,0-.73-.14.986.986,0,0,0-.62.42,6.3,6.3,0,0,0-.71,4.74,7.561,7.561,0,0,1-1.03-.3,7.063,7.063,0,1,1,9.5-5.35Z" transform="translate(0 -6.098)" fill="#ff7a11"/>
  <path id="Path_40" data-name="Path 40" d="M49.38,16.45a2.573,2.573,0,1,0-.71,3.58,2.59,2.59,0,0,0,.71-3.58Zm-1.8,1.97a.633.633,0,0,1-.89-.18.626.626,0,0,1-.1-.48.641.641,0,0,1,.27-.41.663.663,0,0,1,.36-.11.648.648,0,0,1,.54.29A.633.633,0,0,1,47.58,18.42Z" transform="translate(0 -6.098)" fill="#ff7a11"/>
  <path id="Path_41" data-name="Path 41" d="M63.09,35.62l-6.44-7.88A12.628,12.628,0,1,0,37.26,11.78H5.38A5.365,5.365,0,0,0,0,17.14v3.72a.965.965,0,0,0,.97.97H8.8L8.69,53.01a4.822,4.822,0,0,0,4.74,4.89h.52a2.715,2.715,0,0,0,.29-.01.757.757,0,0,0,.15.01h0l30.35-.03c.13,0,.24-.01.43-.02a4.745,4.745,0,0,0,4.28-4.69V48.9a.965.965,0,0,0-.97-.97H46.05V31.22a12.763,12.763,0,0,0,1.75.13,12.414,12.414,0,0,0,4.11-.7l5.3,9.06a3.573,3.573,0,0,0,2.35,1.8,3.845,3.845,0,0,0,.83.1,3.619,3.619,0,0,0,3.59-3.23A3.565,3.565,0,0,0,63.09,35.62ZM8.81,19.89H1.94V17.14a3.427,3.427,0,0,1,3.42-3.43h.05a3.436,3.436,0,0,1,3.4,3.43ZM17.75,48.9v3.27a3.8,3.8,0,0,1-3.8,3.79H13.4a2.889,2.889,0,0,1-2.77-2.95l.11-32.15h0V17.14A5.375,5.375,0,0,0,9.5,13.71H36.2a12.576,12.576,0,0,0,7.92,17.08V47.94H18.72A.962.962,0,0,0,17.75,48.9Zm29.77.97v3.29a2.8,2.8,0,0,1-2.53,2.76,1.927,1.927,0,0,1-.24.01l-26.49.03a5.728,5.728,0,0,0,1.44-3.79v-2.3H47.52ZM38.84,24.58A10.7,10.7,0,0,1,47.77,8.03a10.982,10.982,0,0,1,2.21.23,10.634,10.634,0,0,1,6.76,4.62h0a10.692,10.692,0,1,1-17.9,11.7ZM62.05,38.19a1.667,1.667,0,0,1-3.14.59l-5.2-8.89c.34-.18.67-.37.99-.58.16-.1.3-.22.45-.33l6.47,7.91A1.632,1.632,0,0,1,62.05,38.19Z" transform="translate(0 -6.098)" fill="#ff7a11"/>
</svg>
