<?xml version="1.0" encoding="utf-8"?><svg id="Group_104" data-name="Group 104" xmlns="http://www.w3.org/2000/svg" width="51.109" height="58.146" viewBox="0 0 51.109 58.146">
  <path id="Path_57" data-name="Path 57" d="M85.1,63.537,61.288,49.788,37.476,63.537l-1.162-2.01L61.288,47.1,86.263,61.527Z" transform="translate(-35.733 -19.227)" fill="#ff7a11"/>
  <path id="Path_58" data-name="Path 58" d="M46.564,47.432h2.323V75.6H46.564Z" transform="translate(-22.17 -18.794)" fill="#ff7a11"/>
  <path id="Path_59" data-name="Path 59" d="M46.564,36h2.323V64.169H46.564Z" transform="translate(-22.17 -33.921)" fill="#ff7a11"/>
  <path id="Path_60" data-name="Path 60" d="M61.288,57.618,36.314,43.2l1.162-2.01L61.288,54.934,85.1,41.188l1.162,2.01Z" transform="translate(-35.733 -27.056)" fill="#ff7a11"/>
  <path id="Path_61" data-name="Path 61" d="M61.619,93.252,36.064,78.5V49.86L61.619,35.105,87.174,49.86V78.5L61.619,93.252Zm-23.232-16.1L61.619,90.569,84.851,77.155V51.2L61.619,37.788,38.387,51.2V77.155Z" transform="translate(-36.064 -35.105)" fill="#ff7a11"/>
</svg>
