<?xml version="1.0" encoding="utf-8"?><svg xmlns="http://www.w3.org/2000/svg" width="57.237" height="67.781" viewBox="0 0 57.237 67.781">
  <path id="Path_62" data-name="Path 62" d="M54.928,14.037a1.511,1.511,0,0,1-1.506,1.506H42.878a1.506,1.506,0,0,1,0-3.013H53.422A1.511,1.511,0,0,1,54.928,14.037Zm-1.506,6.025H42.878a1.506,1.506,0,0,0,0,3.013H53.422a1.506,1.506,0,0,0,0-3.013Zm0,7.531H42.878a1.506,1.506,0,0,0,0,3.013H53.422a1.506,1.506,0,0,0,0-3.013ZM36.7,13.435c0-.075-.075-.151-.151-.226s-.075-.151-.151-.226-.151-.151-.226-.151-.151-.075-.226-.151c-.075,0-.151-.075-.3-.075a1.712,1.712,0,0,0-1.356.377c-.075.075-.151.151-.151.226-.075.075-.075.151-.151.226s-.075.151-.075.3v.3a1.487,1.487,0,0,0,.452,1.054c.075.075.151.151.226.151s.151.075.226.151c.075,0,.151.075.3.075h.6c.075,0,.151-.075.3-.075.075,0,.151-.075.226-.151s.151-.075.226-.151a1.8,1.8,0,0,0,.377-1.054v-.3C36.778,13.661,36.778,13.586,36.7,13.435Zm-7.531,0c0-.075-.075-.151-.151-.226s-.075-.151-.151-.226a1.455,1.455,0,0,0-2.109,0c-.075.075-.151.151-.151.226-.075.075-.075.151-.151.226s-.075.151-.075.3v.3a1.487,1.487,0,0,0,.452,1.054,1.214,1.214,0,0,0,.979.452,1.544,1.544,0,0,0,1.506-1.506v-.3C29.247,13.661,29.247,13.586,29.171,13.435ZM69.238,67.509a1.511,1.511,0,0,1-1.506,1.506H62.987a5.264,5.264,0,0,1-10.092,0h-7.23a5.264,5.264,0,0,1-10.092,0H29.1a5.264,5.264,0,0,1-10.092,0h-5.5a1.506,1.506,0,0,1,0-3.013H19a5.528,5.528,0,0,1,3.54-3.54V50.187H20.284a1.511,1.511,0,0,1-1.506-1.506V6.506A1.511,1.511,0,0,1,20.284,5H60.953a1.511,1.511,0,0,1,1.506,1.506V48.681a1.511,1.511,0,0,1-1.506,1.506H59.447V62.463A5.528,5.528,0,0,1,62.987,66h4.745A1.511,1.511,0,0,1,69.238,67.509ZM59.447,47.175V8.012H21.791V47.175ZM26.309,67.509a2.259,2.259,0,1,0-4.519,0,2.259,2.259,0,1,0,4.519,0Zm12.8-5.046V50.187H25.556V62.463A5.528,5.528,0,0,1,29.1,66h6.477A5.528,5.528,0,0,1,39.112,62.463Zm3.766,5.046a2.259,2.259,0,1,0-4.519,0,2.259,2.259,0,1,0,4.519,0Zm13.556-5.046V50.187H42.125V62.463A5.528,5.528,0,0,1,45.665,66h7.23A5.528,5.528,0,0,1,56.434,62.463ZM60.2,67.509a2.259,2.259,0,1,0-4.519,0,2.259,2.259,0,1,0,4.519,0Z" transform="translate(-12 -5)" fill="#ff7a11"/>
</svg>
