<?xml version="1.0" encoding="utf-8"?><svg xmlns="http://www.w3.org/2000/svg" width="66.722" height="63.085" viewBox="0 0 66.722 63.085">
  <g id="layer1" transform="translate(-1.512 -1036.71)">
    <path id="path4653" d="M11.978,1.762a32.416,32.416,0,0,0,0,45.788l3.816-3.816a26.938,26.938,0,0,1,0-38.157Zm45.788,0L53.951,5.577a26.938,26.938,0,0,1,0,38.157l3.816,3.816A32.416,32.416,0,0,0,57.766,1.762ZM19.61,9.393a21.624,21.624,0,0,0,0,30.525L23.425,36.1a16.147,16.147,0,0,1,0-22.894Zm30.6,0-3.816,3.816a16.147,16.147,0,0,1,0,22.894l3.816,3.816A21.624,21.624,0,0,0,50.209,9.393ZM34.872,13.862a10.767,10.767,0,0,0-2.7,21.2V62.433h5.4V35.059a10.767,10.767,0,0,0-2.7-21.2Zm0,5.4a5.4,5.4,0,1,1-5.4,5.4A5.356,5.356,0,0,1,34.872,19.259Z" transform="translate(0 1036.362)" fill="#ff7a11" stroke="#000" stroke-width="2"/>
  </g>
</svg>
