<?xml version="1.0" encoding="utf-8"?><svg xmlns="http://www.w3.org/2000/svg" width="61" height="61" viewBox="0 0 61 61">
  <g id="Group_274" data-name="Group 274" transform="translate(-5.5 -5.5)">
    <path id="Path_114" data-name="Path 114" d="M11,40.5H58.5V23H11Zm2.5-15H56V38H13.5Z" transform="translate(1.25 4.25)" fill="#ff7a11" stroke="#ff7a11" stroke-width="1"/>
    <rect id="Rectangle_205" data-name="Rectangle 205" width="2.5" height="7.5" transform="translate(18.5 32.25)" fill="#ff7a11" stroke="#ff7a11" stroke-width="1"/>
    <rect id="Rectangle_206" data-name="Rectangle 206" width="2.5" height="7.5" transform="translate(24.75 32.25)" fill="#ff7a11" stroke="#ff7a11" stroke-width="1"/>
    <path id="Path_115" data-name="Path 115" d="M49.75,32.25A3.75,3.75,0,1,0,53.5,36,3.683,3.683,0,0,0,49.75,32.25Zm0,5A1.25,1.25,0,1,1,51,36,1.181,1.181,0,0,1,49.75,37.25ZM37.25,23.5V15.875A5.015,5.015,0,1,0,31,11a5.1,5.1,0,0,0,3.75,4.875V23.5ZM33.5,11A2.5,2.5,0,1,1,36,13.5,2.507,2.507,0,0,1,33.5,11Zm1.25,37.5v7.625A5.015,5.015,0,1,0,41,61a5.1,5.1,0,0,0-3.75-4.875V48.5ZM38.5,61A2.5,2.5,0,1,1,36,58.5,2.507,2.507,0,0,1,38.5,61ZM11,6a5,5,0,0,0,0,10,4.507,4.507,0,0,0,2.5-.75l7.125,7.125,1.75-1.75L15.25,13.5A4.507,4.507,0,0,0,16,11,5.015,5.015,0,0,0,11,6ZM8.5,11A2.5,2.5,0,1,1,11,13.5,2.507,2.507,0,0,1,8.5,11ZM61,6a5.015,5.015,0,0,0-5,5,4.507,4.507,0,0,0,.75,2.5l-7.125,7.125,1.75,1.75L58.5,15.25A4.507,4.507,0,0,0,61,16,5,5,0,0,0,61,6Zm0,7.5A2.5,2.5,0,1,1,63.5,11,2.507,2.507,0,0,1,61,13.5ZM11,66a5.015,5.015,0,0,0,5-5,4.507,4.507,0,0,0-.75-2.5l7.125-7.125-1.75-1.75L13.5,56.75A4.507,4.507,0,0,0,11,56a5,5,0,0,0,0,10Zm0-7.5A2.5,2.5,0,1,1,8.5,61,2.507,2.507,0,0,1,11,58.5ZM61,56a4.507,4.507,0,0,0-2.5.75l-7.125-7.125-1.75,1.75L56.75,58.5A4.507,4.507,0,0,0,56,61a5,5,0,1,0,5-5Zm0,7.5A2.5,2.5,0,1,1,63.5,61,2.507,2.507,0,0,1,61,63.5Z" fill="#ff7a11" stroke="#ff7a11" stroke-width="1"/>
  </g>
</svg>
