<?xml version="1.0" encoding="utf-8"?><svg id="Group_285" data-name="Group 285" xmlns="http://www.w3.org/2000/svg" width="56.058" height="56.287" viewBox="0 0 56.058 56.287">
  <path id="Path_156" data-name="Path 156" d="M46.653,55.787H9.634A9.13,9.13,0,0,1,.5,46.653V9.634A9.13,9.13,0,0,1,9.634.5H46.412a9.13,9.13,0,0,1,9.134,9.134V46.412a8.846,8.846,0,0,1-8.894,9.375ZM9.634,2.9A6.719,6.719,0,0,0,2.9,9.634V46.412a6.719,6.719,0,0,0,6.731,6.731H46.412a6.719,6.719,0,0,0,6.731-6.731V9.634A6.719,6.719,0,0,0,46.412,2.9H9.634Z" fill="#ff7a11" stroke="#ff7a11" stroke-width="1"/>
  <path id="Path_157" data-name="Path 157" d="M29.627,21.728H20.732a1.2,1.2,0,0,1,0-2.4h7.452A17.793,17.793,0,0,0,15.2,6.344V13.8a1.2,1.2,0,0,1-2.4,0V4.9a1.822,1.822,0,0,1,.481-.962,1.445,1.445,0,0,1,.962-.24A20.42,20.42,0,0,1,31.069,20.527a1.445,1.445,0,0,1-.24.962c-.481,0-.721.24-1.2.24Z" transform="translate(17.267 4.492)" fill="#ff7a11" stroke="#ff7a11" stroke-width="1"/>
  <path id="Path_158" data-name="Path 158" d="M13.8,21.869H4.9a1.822,1.822,0,0,1-.962-.481,1.445,1.445,0,0,1-.24-.962A20.42,20.42,0,0,1,20.527,3.6a1.445,1.445,0,0,1,.962.24,1.249,1.249,0,0,1,.481.962V13.7a1.2,1.2,0,0,1-2.4,0V6.485a17.793,17.793,0,0,0-12.98,12.98h7.452a1.136,1.136,0,0,1,1.2,1.2,1.346,1.346,0,0,1-1.442,1.2Z" transform="translate(4.492 4.352)" fill="#ff7a11" stroke="#ff7a11" stroke-width="1"/>
  <path id="Path_159" data-name="Path 159" d="M20.527,30.969A19.885,19.885,0,0,1,3.7,14.142a1.445,1.445,0,0,1,.24-.962A1.249,1.249,0,0,1,4.9,12.7H13.8a1.2,1.2,0,1,1,0,2.4H6.344a17.424,17.424,0,0,0,12.98,12.98V20.632a1.2,1.2,0,0,1,2.4,0v8.894a1.822,1.822,0,0,1-.481.962c-.24.481-.481.481-.721.481Z" transform="translate(4.492 17.126)" fill="#ff7a11" stroke="#ff7a11" stroke-width="1"/>
  <path id="Path_160" data-name="Path 160" d="M14,30.828a.883.883,0,0,1-.721-.24,1.249,1.249,0,0,1-.481-.962V20.732a1.2,1.2,0,0,1,2.4,0v7.452A17.793,17.793,0,0,0,28.184,15.2H20.732a1.2,1.2,0,0,1,0-2.4h8.894a1.822,1.822,0,0,1,.962.481,1.445,1.445,0,0,1,.24.962A20.437,20.437,0,0,1,14,30.828Z" transform="translate(17.267 17.267)" fill="#ff7a11" stroke="#ff7a11" stroke-width="1"/>
  <g id="Group_284" data-name="Group 284" transform="translate(21.894 21.894)">
    <path id="Path_161" data-name="Path 161" d="M15.65,21.9A6.364,6.364,0,0,1,9.4,15.65,6.364,6.364,0,0,1,15.65,9.4a6.364,6.364,0,0,1,6.25,6.25A6.364,6.364,0,0,1,15.65,21.9Zm0-10.1A3.846,3.846,0,1,0,19.5,15.65,3.8,3.8,0,0,0,15.65,11.8Z" transform="translate(-9.4 -9.4)" fill="#ff7a11" stroke="#ff7a11" stroke-width="1"/>
  </g>
</svg>
