<?xml version="1.0" encoding="utf-8"?>
<!-- Generator: Adobe Illustrator 23.0.1, SVG Export Plug-In . SVG Version: 6.00 Build 0)  -->
<svg version="1.1" id="Layer_1" xmlns="http://www.w3.org/2000/svg" xmlns:xlink="http://www.w3.org/1999/xlink" x="0px" y="0px"
	 viewBox="0 0 353.7 353.7" style="enable-background:new 0 0 353.7 353.7;" xml:space="preserve">
<style type="text/css">
	.st0{fill:#C6C6C6;}
</style>
<g>
	<path id="Path_8_2_" class="st0" d="M77.6,320.3c1.9,1.9,5,1.9,6.9,0l5.6-5.6c1.9-1.9,1.9-4.9,0-6.8l-17.4-17.3l8.9-8.8
		c1.9-1.9,1.3-4-1.2-4.7l-41.2-11c-2.6-0.7-4.1,0.9-3.4,3.4l11,41.2c0.7,2.6,2.8,3.1,4.7,1.2l8.8-8.8L77.6,320.3z"/>
	<path id="Path_12_2_" class="st0" d="M280.9,63.3l-8.9,8.8c-1.9,1.9-1.3,4,1.2,4.7l41.2,11c2.6,0.7,4.2-0.8,3.4-3.4l-11-41.2
		c-0.7-2.6-2.8-3.1-4.6-1.2l-8.8,8.8l-17.3-17.4c-1.9-1.9-4.9-1.9-6.9,0l-5.7,5.7c-1.8,1.9-1.8,4.9,0,6.8L280.9,63.3z"/>
	<path id="Path_13_2_" class="st0" d="M14.4,176.9C14.4,133.8,31.5,92.4,62,62c30.4-30.5,71.8-47.7,114.9-47.6
		c19.3,0,38.5,3.4,56.6,10.2c3.7,1.4,7.9-0.5,9.3-4.3c1.4-3.7-0.5-7.9-4.2-9.3c-19.7-7.3-40.6-11-61.6-11
		c-46.9-0.1-92,18.6-125.1,51.8C18.6,85-0.1,130,0,176.9c0,21,3.7,41.9,11,61.6c1.1,2.8,3.8,4.7,6.8,4.7c0.9,0,1.7-0.1,2.5-0.4
		c3.7-1.3,5.7-5.4,4.3-9.1c0,0,0-0.1,0-0.1C17.8,215.4,14.4,196.2,14.4,176.9z"/>
	<path id="Path_14_2_" class="st0" d="M342.7,115.2c-1.4-3.7-5.5-5.6-9.3-4.2c-3.7,1.4-5.7,5.5-4.3,9.3c0,0,0,0,0,0
		c6.7,18.1,10.1,37.3,10.2,56.6c0,43.1-17.1,84.4-47.6,114.8c-30.4,30.5-71.8,47.7-114.9,47.6c-19.3,0-38.5-3.5-56.6-10.2
		c-3.7-1.4-7.9,0.5-9.3,4.2c-1.4,3.7,0.5,7.9,4.2,9.2c0,0,0.1,0,0.1,0c19.7,7.3,40.6,11,61.6,11h0.1c46.9,0.1,91.9-18.6,125-51.8
		c33.2-33.1,51.9-78.1,51.8-125C353.7,155.8,350,135,342.7,115.2z"/>
</g>
<g id="Objeto_inteligente_vectorial" transform="translate(963 2185.999)">
	<g id="Objeto_inteligente_vectorial-2" transform="translate(0 0.001)">
		<g id="Group_3" transform="translate(0 0)">
			<path id="Path_3" class="st0" d="M-718.6-2021v-69.8h-175.2v121.5h121.8c3.1,25.6,26.3,43.9,51.9,40.9
				c25.6-3.1,43.9-26.3,40.9-51.9C-681.7-2001.1-697.8-2017.8-718.6-2021z M-884.5-2081.4H-728v20h-156.6V-2081.4z M-764.6-2000.3
				c-0.8,1.1-1.5,2.3-2.1,3.6c-1,1.8-1.9,3.7-2.6,5.7c-0.3,0.7-0.5,1.3-0.7,2c-0.2,0.7-0.4,1.3-0.6,2s-0.4,1.4-0.5,2.1
				c-0.1,0.5-0.2,1-0.3,1.5c-0.1,0.4-0.2,0.9-0.2,1.3c-0.1,0.4-0.1,0.8-0.2,1.3c0,0.1,0,0.3,0,0.4c-0.1,0.6-0.2,1.3-0.2,2h-112.3
				v-61.9H-728v19.1c-0.7,0-1.4,0.1-2.2,0.2c-1,0.1-1.9,0.2-2.9,0.4c-0.7,0.1-1.4,0.2-2.1,0.4s-1.3,0.3-2,0.4
				c-0.2,0.1-0.4,0.1-0.7,0.2c-0.5,0.1-0.9,0.3-1.4,0.4c-0.6,0.2-1.2,0.4-1.8,0.6c-0.6,0.2-1.1,0.4-1.6,0.6
				c-0.7,0.3-1.3,0.5-1.9,0.8s-1.3,0.6-1.9,0.9c-0.7,0.4-1.4,0.7-2.2,1.2c-1.1,0.6-2.2,1.3-3.2,2c0,0-0.1,0-0.1,0
				c-1.1,0.8-2.2,1.6-3.2,2.4c-1,0.8-2.1,1.8-3.1,2.7c-0.5,0.5-1,1-1.4,1.4c-0.9,1-1.8,2-2.7,3.1c0,0,0,0.1-0.1,0.1
				c-0.4,0.5-0.8,1.1-1.2,1.6S-764.3-2000.9-764.6-2000.3z M-725.6-1936.9c-18.6-0.1-34.4-13.8-37-32.3c-0.3-1.7-0.4-3.5-0.4-5.3
				c0-20.7,16.7-37.5,37.4-37.6c2.4,0,4.7,0.2,7,0.7c20.4,4,33.6,23.7,29.7,44.1C-692.4-1949.7-707.8-1937-725.6-1936.9z"/>
			<path id="Path_4" class="st0" d="M-721-1979.2v-16.4h-9.3v16.4h-16.4v9.4h16.4v16.4h9.3v-16.5h16.3v-9.4L-721-1979.2z"/>
		</g>
	</g>
	<path id="Color_Overlay_1_" class="st0" d="M-772.1-1969.2h-121.8v-121.5h175.2v69.8c25.7,3.7,43.4,27.6,39.7,53.2
		s-27.6,43.4-53.2,39.7C-753.3-1931.1-769.7-1948-772.1-1969.2L-772.1-1969.2z M-763-1974.5c0,1.8,0.1,3.5,0.4,5.3
		c3,20.4,22,34.5,42.4,31.5s34.5-22,31.5-42.4c-2.3-15.7-14.4-28.3-30-31.3c-2.3-0.5-4.7-0.7-7-0.7
		C-746.3-2012-763.1-1995.2-763-1974.5L-763-1974.5z M-884.5-1978.6h112.3c0-0.7,0.1-1.3,0.2-2c0-0.1,0-0.3,0-0.4
		c0.1-0.4,0.1-0.8,0.2-1.3c0-0.4,0.1-0.9,0.2-1.3c0.1-0.5,0.2-1,0.3-1.5c0.2-0.7,0.3-1.4,0.5-2.1s0.4-1.4,0.6-2
		c0.2-0.7,0.4-1.3,0.7-2c0.7-2,1.6-3.9,2.6-5.7c0.6-1.2,1.3-2.4,2.1-3.6c0.4-0.6,0.8-1.2,1.2-1.7c0.4-0.6,0.8-1.1,1.2-1.6
		c0,0,0-0.1,0.1-0.1c0.9-1.1,1.8-2.1,2.7-3.1c0.5-0.5,1-1,1.4-1.4c1-1,2-1.9,3.1-2.7c1-0.8,2.1-1.6,3.2-2.4c0,0,0.1,0,0.1,0
		c1-0.7,2.1-1.4,3.2-2c0.7-0.4,1.4-0.8,2.2-1.2c0.6-0.3,1.2-0.6,1.9-0.9s1.3-0.5,1.9-0.8c0.5-0.2,1.1-0.4,1.6-0.6
		c0.5-0.2,1.2-0.4,1.8-0.6c0.5-0.1,0.9-0.3,1.4-0.4c0.3-0.1,0.5-0.1,0.7-0.2c0.7-0.2,1.3-0.3,2-0.4s1.4-0.3,2.1-0.4
		c0.9-0.2,1.9-0.3,2.9-0.4c0.7-0.1,1.4-0.1,2.2-0.2v-19.2h-156.5V-1978.6z M-884.5-2061.4H-728v-20h-156.6V-2061.4z M-730.3-1953.3
		v-16.5h-16.4v-9.4h16.4v-16.4h9.3v16.4h16.4v9.4H-721v16.4H-730.3z"/>
</g>
</svg>
