<?xml version="1.0" encoding="utf-8"?>
<!-- Generator: Adobe Illustrator 23.0.1, SVG Export Plug-In . SVG Version: 6.00 Build 0)  -->
<svg version="1.1" id="Layer_1" xmlns="http://www.w3.org/2000/svg" xmlns:xlink="http://www.w3.org/1999/xlink" x="0px" y="0px"
	 viewBox="0 0 353.7 353.7" style="enable-background:new 0 0 353.7 353.7;" xml:space="preserve">
<style type="text/css">
	.st0{fill:#C6C6C6;}
</style>
<path id="Path_8_1_" class="st0" d="M77.6,320.3c1.9,1.9,5,1.9,6.9,0l5.6-5.6c1.9-1.9,1.9-4.9,0-6.8l-17.4-17.3l8.9-8.8
	c1.9-1.9,1.3-4-1.2-4.7l-41.2-11c-2.6-0.7-4.1,0.9-3.4,3.4l11,41.2c0.7,2.6,2.8,3.1,4.7,1.2l8.8-8.8L77.6,320.3z"/>
<g>
	<path id="Path_9_1_" class="st0" d="M237.9,99c-2.1-1.2-4.3-2.1-6.6-2.7l-0.5-7c0-1.5-1.3-2.7-2.8-2.8h-9.2c-1.5,0-2.8,1.2-2.8,2.8
		l-0.3,7c-2.3,0.7-4.5,1.6-6.6,2.8l-5.3-4.6c-1-1.1-2.7-1.1-3.7-0.1c0,0,0,0-0.1,0.1l-6.6,6.5c-1,1.1-1,2.8,0,3.9l4.8,5.2
		c-1.2,2.1-2.1,4.3-2.7,6.6l-7,0.6c-1.5,0-2.8,1.2-2.8,2.7c0,0,0,0,0,0v9.3c0,1.5,1.2,2.7,2.7,2.7c0,0,0,0,0,0l7,0.4
		c0.7,2.3,1.6,4.5,2.8,6.6l-4.6,5.4c-1.1,1-1.1,2.7-0.1,3.8c0,0,0,0,0.1,0.1l6.5,6.5c1.1,1.1,2.8,1.1,3.8,0c0,0,0,0,0,0l5.2-4.7
		c2.1,1.2,4.3,2.1,6.7,2.7l0.5,7c0,1.5,1.2,2.7,2.7,2.7h9.3c1.5,0,2.7-1.2,2.7-2.7c0,0,0,0,0,0l0.3-7.1c2.3-0.6,4.5-1.5,6.6-2.7
		l5.3,4.6c1.1,1,2.8,1,3.9,0l6.5-6.6c1.1-1,1.1-2.7,0.1-3.8c0,0-0.1-0.1-0.1-0.1l-4.7-5.2c1.2-2.1,2.1-4.3,2.7-6.6l7-0.5
		c1.5,0,2.7-1.2,2.7-2.7c0,0,0,0,0,0v-9.2c0-1.5-1.2-2.7-2.7-2.8c0,0,0,0,0,0l-7.1-0.3c-0.7-2.3-1.6-4.5-2.8-6.6l4.5-5.4
		c1.1-1,1.1-2.7,0.1-3.8c0,0-0.1-0.1-0.1-0.1l-6.5-6.5c-1-1.1-2.7-1.1-3.8,0c0,0,0,0,0,0L237.9,99z M241.7,129.5
		c-0.4,1.5-1,3-1.9,4.4c-1.7,2.9-4,5.3-6.9,7c-1.4,0.8-2.9,1.4-4.4,1.8c-1.6,0.4-3.3,0.6-4.9,0.6c-1.7,0-3.3-0.2-4.9-0.6
		c-1.6-0.4-3-1-4.4-1.8c-2.9-1.7-5.3-4.1-7-7c-0.8-1.4-1.4-2.9-1.8-4.4c-0.4-1.6-0.7-3.3-0.7-5c0-1.7,0.2-3.3,0.7-4.9
		c0.4-1.6,1-3,1.8-4.4c1.7-2.9,4.1-5.3,7-6.9c1.4-0.8,2.9-1.4,4.4-1.8c1.6-0.4,3.3-0.6,4.9-0.7c1.7,0,3.3,0.2,4.9,0.7
		c1.6,0.4,3,1,4.4,1.8c2.9,1.7,5.3,4.1,6.9,6.9c0.8,1.4,1.5,2.9,1.9,4.4c0.4,1.6,0.6,3.2,0.6,4.9
		C242.3,126.2,242.1,127.9,241.7,129.5L241.7,129.5z"/>
	<path id="Path_10_1_" class="st0" d="M114.9,246.9h17c2.8,0,5-2.2,5.1-5c0,0,0,0,0,0l0.6-13c4.3-1.2,8.4-2.9,12.3-5.1l9.8,8.4
		c2,2,5.1,2,7.1,0c0,0,0,0,0,0l12-12c1.9-2,1.9-5.2,0-7.2l-8.8-9.6c2.2-3.9,3.9-8,5-12.3l12.9-1c2.8,0,5-2.3,5-5v-17.1
		c0-2.8-2.3-5-5-5l-13-0.6c-1.2-4.3-2.9-8.4-5.1-12.2l8.4-9.8c2-2,2-5.2,0-7.2l-12-12c-2-2-5.2-2-7.2,0l-9.6,8.7
		c-3.9-2.1-8-3.8-12.3-5l-1-12.9c0-2.8-2.3-5.1-5.1-5.1h-17c-2.8,0-5,2.3-5,5.1c0,0,0,0,0,0l-0.6,13c-4.3,1.2-8.3,2.9-12.2,5.1
		l-9.9-8.4c-2-1.9-5.2-1.9-7.1,0l-12,12c-1.9,2-1.9,5.2,0,7.2l8.8,9.6c-2.2,3.8-3.9,8-5,12.3l-12.9,1c-2.8,0-5,2.3-5,5v17
		c0,2.8,2.2,5,5,5.1c0,0,0,0,0,0l13.1,0.7c1.2,4.3,2.9,8.3,5,12.2l-8.4,9.8c-1.9,2-1.9,5.1,0,7.1l12,12.1c2,1.9,5.1,1.9,7.1,0
		l9.6-8.8c3.9,2.2,8,3.8,12.3,5l1.1,12.9C109.9,244.6,112.1,246.8,114.9,246.9C114.9,246.9,114.9,246.9,114.9,246.9z M105.8,207
		c-5.3-3.1-9.7-7.5-12.8-12.9c-1.5-2.6-2.6-5.3-3.4-8.1c-0.8-3-1.2-6-1.2-9.1c0-3.1,0.4-6.1,1.2-9.1c0.8-2.9,1.9-5.6,3.4-8.2
		c3.1-5.3,7.5-9.7,12.8-12.8c2.6-1.5,5.3-2.6,8.2-3.4c3-0.8,6-1.2,9.1-1.1c3.1,0,6.1,0.4,9.1,1.1c2.9,0.8,5.6,2,8.2,3.4
		c5.3,3.1,9.7,7.5,12.8,12.8c1.5,2.6,2.7,5.3,3.5,8.2c0.8,3,1.2,6,1.2,9.1c0,3.1-0.4,6.1-1.2,9.1c-0.8,2.8-2,5.6-3.5,8.1
		c-3.1,5.3-7.5,9.8-12.8,12.9c-2.6,1.4-5.3,2.6-8.2,3.4c-3,0.8-6,1.2-9.1,1.2c-3.1,0-6.1-0.4-9.1-1.2
		C111.1,209.5,108.4,208.4,105.8,207L105.8,207z"/>
	<path id="Path_11_1_" class="st0" d="M287.3,227.3c1.9,0,3.5-1.6,3.5-3.5c0,0,0,0,0,0v-11.9c0-1.9-1.6-3.5-3.5-3.5c0,0,0,0,0,0
		l-9.1-0.5c-0.9-3-2.1-5.8-3.6-8.5l5.9-6.9c1.4-1.4,1.4-3.6,0-5l-8.5-8.4c-1.3-1.4-3.5-1.4-4.9-0.1c0,0,0,0-0.1,0.1l-6.8,6.1
		c-2.7-1.5-5.6-2.7-8.6-3.5l-0.8-9c0-2-1.6-3.6-3.5-3.6h-11.9c-2,0-3.5,1.6-3.5,3.6l-0.5,9.1c-3,0.8-5.9,2-8.6,3.6l-6.8-5.9
		c-1.4-1.4-3.7-1.4-5.1,0l-8.4,8.4c-1.4,1.4-1.4,3.6,0,5l6.2,6.8c-1.5,2.7-2.7,5.6-3.5,8.6l-9.1,0.7c-1.9,0-3.5,1.6-3.5,3.5
		c0,0,0,0,0,0v12c0,1.9,1.5,3.5,3.4,3.5c0,0,0,0,0,0l9.2,0.5c0.8,3,2,5.9,3.5,8.5l-5.9,6.9c-1.4,1.4-1.4,3.6,0,5l8.5,8.5
		c1.4,1.4,3.6,1.4,5,0l6.8-6.2c2.7,1.5,5.6,2.7,8.6,3.5l0.7,9c0,1.9,1.6,3.5,3.5,3.5h12c1.9,0,3.5-1.6,3.5-3.5l0.4-9.1
		c3-0.8,5.9-2,8.6-3.6l6.9,5.9c1.4,1.4,3.6,1.4,5,0l8.4-8.5c1.4-1.3,1.4-3.5,0.1-4.9c0,0-0.1-0.1-0.1-0.1l-6.1-6.8
		c1.5-2.7,2.7-5.6,3.5-8.6L287.3,227.3z M265.2,224.5c-0.6,2-1.3,3.9-2.4,5.7c-2.1,3.7-5.2,6.9-9,9c-1.8,1-3.7,1.8-5.7,2.4
		c-2.1,0.6-4.2,0.9-6.4,0.9c-2.2,0-4.3-0.3-6.4-0.9c-2-0.5-3.9-1.3-5.7-2.4c-3.7-2.2-6.8-5.3-9-9c-1-1.8-1.8-3.7-2.3-5.7
		c-0.6-2.1-0.8-4.2-0.8-6.4c0-2.1,0.3-4.3,0.8-6.4c0.5-2,1.3-3.9,2.3-5.7c2.2-3.7,5.3-6.8,9-9c1.8-1,3.7-1.8,5.7-2.4
		c2.1-0.5,4.2-0.8,6.4-0.9c2.1,0,4.3,0.3,6.4,0.9c2,0.5,3.9,1.4,5.7,2.4c3.7,2.2,6.8,5.3,9,9c1,1.8,1.8,3.7,2.4,5.7
		c0.6,2.1,0.9,4.2,0.9,6.4C266,220.2,265.7,222.4,265.2,224.5z"/>
</g>
<path id="Path_12_1_" class="st0" d="M280.9,63.3l-8.9,8.8c-1.9,1.9-1.3,4,1.2,4.7l41.2,11c2.6,0.7,4.2-0.8,3.4-3.4l-11-41.2
	c-0.7-2.6-2.8-3.1-4.6-1.2l-8.8,8.8l-17.3-17.4c-1.9-1.9-4.9-1.9-6.9,0l-5.7,5.7c-1.8,1.9-1.8,4.9,0,6.8L280.9,63.3z"/>
<path id="Path_13_1_" class="st0" d="M14.4,176.9C14.4,133.8,31.5,92.4,62,62c30.4-30.5,71.8-47.7,114.9-47.6
	c19.3,0,38.5,3.4,56.6,10.2c3.7,1.4,7.9-0.5,9.3-4.3c1.4-3.7-0.5-7.9-4.2-9.3c-19.7-7.3-40.6-11-61.6-11
	c-46.9-0.1-92,18.6-125.1,51.8C18.6,85-0.1,130,0,176.9c0,21,3.7,41.9,11,61.6c1.1,2.8,3.8,4.7,6.8,4.7c0.9,0,1.7-0.1,2.5-0.4
	c3.7-1.3,5.7-5.4,4.3-9.1c0,0,0-0.1,0-0.1C17.8,215.4,14.4,196.2,14.4,176.9z"/>
<path id="Path_14_1_" class="st0" d="M342.7,115.2c-1.4-3.7-5.5-5.6-9.3-4.2c-3.7,1.4-5.7,5.5-4.3,9.3c0,0,0,0,0,0
	c6.7,18.1,10.1,37.3,10.2,56.6c0,43.1-17.1,84.4-47.6,114.8c-30.4,30.5-71.8,47.7-114.9,47.6c-19.3,0-38.5-3.5-56.6-10.2
	c-3.7-1.4-7.9,0.5-9.3,4.2c-1.4,3.7,0.5,7.9,4.2,9.2c0,0,0.1,0,0.1,0c19.7,7.3,40.6,11,61.6,11h0.1c46.9,0.1,91.9-18.6,125-51.8
	c33.2-33.1,51.9-78.1,51.8-125C353.7,155.8,350,135,342.7,115.2z"/>
</svg>
