<?xml version="1.0" encoding="utf-8"?>
<!-- Generator: Adobe Illustrator 23.0.1, SVG Export Plug-In . SVG Version: 6.00 Build 0)  -->
<svg version="1.1" id="Layer_1" xmlns="http://www.w3.org/2000/svg" xmlns:xlink="http://www.w3.org/1999/xlink" x="0px" y="0px"
	 viewBox="0 0 353.7 353.7" style="enable-background:new 0 0 353.7 353.7;" xml:space="preserve">
<style type="text/css">
	.st0{fill:#C6C6C6;}
</style>
<g>
	<path id="Path_8_3_" class="st0" d="M77.6,320.3c1.9,1.9,5,1.9,6.9,0l5.6-5.6c1.9-1.9,1.9-4.9,0-6.8l-17.4-17.3l8.9-8.8
		c1.9-1.9,1.3-4-1.2-4.7l-41.2-11c-2.6-0.7-4.1,0.9-3.4,3.4l11,41.2c0.7,2.6,2.8,3.1,4.7,1.2l8.8-8.8L77.6,320.3z"/>
	<path id="Path_12_3_" class="st0" d="M280.9,63.3l-8.9,8.8c-1.9,1.9-1.3,4,1.2,4.7l41.2,11c2.6,0.7,4.2-0.8,3.4-3.4l-11-41.2
		c-0.7-2.6-2.8-3.1-4.6-1.2l-8.8,8.8l-17.3-17.4c-1.9-1.9-4.9-1.9-6.9,0l-5.7,5.7c-1.8,1.9-1.8,4.9,0,6.8L280.9,63.3z"/>
	<path id="Path_13_3_" class="st0" d="M14.4,176.9C14.4,133.8,31.5,92.4,62,62c30.4-30.5,71.8-47.7,114.9-47.6
		c19.3,0,38.5,3.4,56.6,10.2c3.7,1.4,7.9-0.5,9.3-4.3c1.4-3.7-0.5-7.9-4.2-9.3c-19.7-7.3-40.6-11-61.6-11
		c-46.9-0.1-92,18.6-125.1,51.8C18.6,85-0.1,130,0,176.9c0,21,3.7,41.9,11,61.6c1.1,2.8,3.8,4.7,6.8,4.7c0.9,0,1.7-0.1,2.5-0.4
		c3.7-1.3,5.7-5.4,4.3-9.1c0,0,0-0.1,0-0.1C17.8,215.4,14.4,196.2,14.4,176.9z"/>
	<path id="Path_14_3_" class="st0" d="M342.7,115.2c-1.4-3.7-5.5-5.6-9.3-4.2c-3.7,1.4-5.7,5.5-4.3,9.3c0,0,0,0,0,0
		c6.7,18.1,10.1,37.3,10.2,56.6c0,43.1-17.1,84.4-47.6,114.8c-30.4,30.5-71.8,47.7-114.9,47.6c-19.3,0-38.5-3.5-56.6-10.2
		c-3.7-1.4-7.9,0.5-9.3,4.2c-1.4,3.7,0.5,7.9,4.2,9.2c0,0,0.1,0,0.1,0c19.7,7.3,40.6,11,61.6,11h0.1c46.9,0.1,91.9-18.6,125-51.8
		c33.2-33.1,51.9-78.1,51.8-125C353.7,155.8,350,135,342.7,115.2z"/>
</g>
<path class="st0" d="M300,235.6L270.4,214c0.4-0.7,0.6-1.4,0.6-2.2V102.6c0-2.4-2-4.4-4.5-4.4H92.6c-2.5,0-4.5,2-4.5,4.4v108.7
	l-33.8,24.3c-1.6,1.1-2.2,3.1-1.6,4.9c0.6,1.8,2.3,3,4.3,3h240.4c2,0,3.7-1.2,4.3-3C302.2,238.7,301.6,236.7,300,235.6z M97.1,107
	h164.8v100.4h-2.2H97.1V107z M70.7,234.7l25.8-18.5h161.7l25.5,18.5H70.7z"/>
</svg>
