<?xml version="1.0" encoding="utf-8"?><svg xmlns="http://www.w3.org/2000/svg" width="124.78mm" height="124.78mm" viewBox="0 0 353.7 353.7">
  <title>BIG_ALL</title>
  <g>
    <g>
      <path d="M287.81,157.41V42.86H.26v199.4h199.9a76.69,76.69,0,1,0,87.65-84.85ZM15.53,58.28H272.38V91.11h-257V58.28ZM212.31,191.39a35.24,35.24,0,0,0-3.45,5.9,60.1,60.1,0,0,0-4.26,9.36,25.13,25.13,0,0,0-1.15,3.28c-.33,1.15-.66,2.14-1,3.28a27,27,0,0,0-.82,3.45c-.16.82-.33,1.64-.49,2.46a9.91,9.91,0,0,0-.33,2.14c-.16.65-.16,1.31-.33,2.13v.66a20.57,20.57,0,0,0-.33,3.28H15.86V125.74H272.38v31.34a30.25,30.25,0,0,0-3.61.33c-1.64.17-3.12.33-4.76.66a24.66,24.66,0,0,0-3.45.66,23.77,23.77,0,0,1-3.28.65,8.81,8.81,0,0,1-1.15.33c-.82.16-1.48.49-2.3.66l-3,1c-1,.33-1.81.66-2.63,1-1.15.49-2.13.82-3.12,1.31s-2.13,1-3.11,1.48c-1.15.65-2.3,1.15-3.62,2a55.83,55.83,0,0,0-5.25,3.28H233c-1.81,1.31-3.61,2.62-5.25,3.94s-3.45,3-5.09,4.43l-2.3,2.3c-1.48,1.64-2.95,3.28-4.43,5.08,0,0,0,.17-.16.17-.66.82-1.32,1.8-2,2.62A12.16,12.16,0,0,0,212.31,191.39Zm64,104.05a61.63,61.63,0,0,1-60.73-53,50.77,50.77,0,0,1-.65-8.7A61.67,61.67,0,0,1,276.32,172a53.59,53.59,0,0,1,11.49,1.15,61.71,61.71,0,0,1-11.49,122.27Z" fill="#c6c6c6"/>
      <path d="M283.87,226V199.1H268.6V226H241.69v15.42H268.6v26.92h15.27V241.28h26.75V225.85Z" fill="#c6c6c6"/>
    </g>
    <path d="M200,242.43H.1V43H287.64V157.58A77,77,0,1,1,200,242.43Zm14.94-8.7a52.09,52.09,0,0,0,.65,8.7,61.3,61.3,0,1,0,72-69.26A54.56,54.56,0,0,0,276.15,172a61.52,61.52,0,0,0-61.21,61.71ZM15.53,227H199.84a22.76,22.76,0,0,1,.32-3.28v-.66c.17-.66.17-1.31.33-2.13a9.91,9.91,0,0,1,.33-2.14c.17-.82.33-1.64.49-2.46.33-1.15.5-2.3.82-3.45s.66-2.29,1-3.28a26.7,26.7,0,0,1,1.15-3.28,60.5,60.5,0,0,1,4.26-9.35,56.52,56.52,0,0,1,3.45-5.91c.66-1,1.31-2,2-2.79.66-1,1.31-1.81,2-2.63a.16.16,0,0,1,.16-.16c1.48-1.81,3-3.45,4.44-5.09l2.29-2.3a42.94,42.94,0,0,1,5.09-4.43c1.64-1.31,3.45-2.63,5.25-3.94h.17a54.57,54.57,0,0,1,5.25-3.28c1.15-.66,2.3-1.31,3.61-2,1-.49,2-1,3.12-1.48s2.13-.82,3.12-1.31c.82-.33,1.8-.66,2.62-1s2-.65,3-1c.82-.16,1.47-.49,2.29-.66a8.37,8.37,0,0,0,1.15-.33,23.91,23.91,0,0,1,3.29-.65c1.14-.17,2.29-.49,3.44-.66a40.49,40.49,0,0,1,4.76-.65c1.15-.17,2.3-.17,3.61-.33V124.92H15.69V227Zm0-135.89H272.38V58.28h-257V91.11ZM268.6,268.52V241.44H241.69V226H268.6V199.1h15.27V226h26.91v15.43H283.87v26.92H268.6Z" fill="#c6c6c6"/>
  </g>
</svg>
