<?xml version="1.0" encoding="utf-8"?><svg xmlns="http://www.w3.org/2000/svg" width="124.71mm" height="124.71mm" viewBox="0 0 353.5 353.5">
  <title>BIG_ALL</title>
  <path d="M40.56,344A41,41,0,0,1,0,303V73.12A41,41,0,0,1,40.56,32.17h22a11.22,11.22,0,0,1,.19,22.43H40.56A18.18,18.18,0,0,0,22,72.73V136.1H331.47v-63A18.32,18.32,0,0,0,313.53,54.4H290.91A11.21,11.21,0,1,1,290.72,32h22.22a41,41,0,0,1,40.56,41V302.81a41,41,0,0,1-40.56,40.94H40.56ZM22,303A18.31,18.31,0,0,0,40,321.72H313.14a18.18,18.18,0,0,0,18.52-18.13V158.33H22.23ZM228.52,95.15a33.52,33.52,0,0,1,22-31.39V20.87a11,11,0,0,1,22-.59V63.76a33.3,33.3,0,1,1-44.06,31.39Zm22,0a11,11,0,1,0,22-.19A11.07,11.07,0,0,0,261.47,84,11.18,11.18,0,0,0,250.36,95c.39,0,.39.19.19.19Zm-191.47,0a33.52,33.52,0,0,1,22-31.39V20.87a11,11,0,0,1,22-.59V63.76A33.3,33.3,0,1,1,59.08,95.15Zm22,0a11,11,0,1,0,22-.19A11.06,11.06,0,0,0,92,84,11.19,11.19,0,0,0,80.92,95a.19.19,0,0,1,.19.19ZM121.47,54.4a11.21,11.21,0,0,1,0-22.42H232a11.21,11.21,0,0,1,0,22.42Z" fill="#c6c6c6"/>
</svg>
