<?xml version="1.0" encoding="utf-8"?><svg xmlns="http://www.w3.org/2000/svg" width="124.71mm" height="124.71mm" viewBox="0 0 353.5 353.5">
  <title>BIG_ALL</title>
  <path d="M350.91,268.51,308.82,238a6.05,6.05,0,0,0,.85-3.12V80a6.31,6.31,0,0,0-6.37-6.23H56.86A6.31,6.31,0,0,0,50.49,80v154L2.59,268.51a6,6,0,0,0-2.27,6.94,6.31,6.31,0,0,0,6.1,4.25H347.08a6.31,6.31,0,0,0,6.1-4.25A6,6,0,0,0,350.91,268.51ZM63.38,86.27H296.92V228.54H63.38V86.27Zm-37.55,181L62.39,241H291.53l36.14,26.22Z" fill="#c6c6c6"/>
</svg>
