<?xml version="1.0" encoding="utf-8"?><svg xmlns="http://www.w3.org/2000/svg" width="124.71mm" height="124.71mm" viewBox="0 0 353.5 353.5">
  <title>BIG_ALL</title>
  <g>
    <path d="M77.4,320.3a4.89,4.89,0,0,0,6.9,0l5.6-5.6a4.77,4.77,0,0,0,0-6.8L72.5,290.6l8.9-8.8c1.9-1.9,1.3-4-1.2-4.7L39,266.1c-2.6-.7-4.1.9-3.4,3.4l11,41.2c.7,2.6,2.8,3.1,4.7,1.2l8.8-8.8Z" fill="#c6c6c6"/>
    <g>
      <path d="M237.7,99a27,27,0,0,0-6.6-2.7l-.5-7a2.93,2.93,0,0,0-2.8-2.8h-9.2a2.8,2.8,0,0,0-2.8,2.8l-.3,7a31.92,31.92,0,0,0-6.6,2.8l-5.3-4.6a2.57,2.57,0,0,0-3.7-.1l-.1.1-6.6,6.5a2.91,2.91,0,0,0,0,3.9l4.8,5.2a27,27,0,0,0-2.7,6.6l-7,.6a2.78,2.78,0,0,0-2.8,2.7h0v9.3a2.69,2.69,0,0,0,2.7,2.7h0l7,.4A31.92,31.92,0,0,0,198,139l-4.6,5.4a2.69,2.69,0,0,0-.1,3.8l.1.1,6.5,6.5a2.6,2.6,0,0,0,3.8,0h0l5.2-4.7a26.14,26.14,0,0,0,6.7,2.7l.5,7a2.69,2.69,0,0,0,2.7,2.7h9.3a2.69,2.69,0,0,0,2.7-2.7h0l.3-7.1a27,27,0,0,0,6.6-2.7l5.3,4.6a2.91,2.91,0,0,0,3.9,0l6.5-6.6a2.69,2.69,0,0,0,.1-3.8l-.1-.1-4.7-5.2a27,27,0,0,0,2.7-6.6l7-.5a2.69,2.69,0,0,0,2.7-2.7h0v-9.2a2.84,2.84,0,0,0-2.7-2.8h0l-7.1-.3a31.92,31.92,0,0,0-2.8-6.6l4.5-5.4a2.69,2.69,0,0,0,.1-3.8l-.1-.1-6.5-6.5a2.6,2.6,0,0,0-3.8,0h0Zm3.8,30.5a15.44,15.44,0,0,1-1.9,4.4,19.29,19.29,0,0,1-6.9,7,18.54,18.54,0,0,1-4.4,1.8,20.53,20.53,0,0,1-4.9.6,19.93,19.93,0,0,1-4.9-.6,17,17,0,0,1-4.4-1.8,19.57,19.57,0,0,1-7-7,18.54,18.54,0,0,1-1.8-4.4,20.8,20.8,0,0,1-.7-5,16.14,16.14,0,0,1,.7-4.9,17,17,0,0,1,1.8-4.4,18.86,18.86,0,0,1,11.4-8.7,27.55,27.55,0,0,1,4.9-.7,16.14,16.14,0,0,1,4.9.7,17,17,0,0,1,4.4,1.8,19.42,19.42,0,0,1,8.8,11.3,19.93,19.93,0,0,1,.6,4.9,20.74,20.74,0,0,1-.6,5Z" fill="#c6c6c6"/>
      <path d="M114.7,246.9h17a5.1,5.1,0,0,0,5.1-5h0l.6-13a55.08,55.08,0,0,0,12.3-5.1l9.8,8.4a5,5,0,0,0,7.1,0h0l12-12a5.26,5.26,0,0,0,0-7.2l-8.8-9.6a50.46,50.46,0,0,0,5-12.3l12.9-1a5,5,0,0,0,5-5V168a5,5,0,0,0-5-5l-13-.6a52.46,52.46,0,0,0-5.1-12.2l8.4-9.8a5.07,5.07,0,0,0,0-7.2l-12-12a5.07,5.07,0,0,0-7.2,0l-9.6,8.7a59.88,59.88,0,0,0-12.3-5l-1-12.9a5.12,5.12,0,0,0-5.1-5.1h-17a5,5,0,0,0-5,5.1h0l-.6,13A54.32,54.32,0,0,0,96,130.1l-9.9-8.4a5.13,5.13,0,0,0-7.1,0l-12,12a5.26,5.26,0,0,0,0,7.2l8.8,9.6a48.9,48.9,0,0,0-5,12.3l-12.9,1a5,5,0,0,0-5,5v17a5.1,5.1,0,0,0,5,5.1h0l13.1.7a59,59,0,0,0,5,12.2l-8.4,9.8a5.13,5.13,0,0,0,0,7.1l12,12.1a5.13,5.13,0,0,0,7.1,0l9.6-8.8a54.76,54.76,0,0,0,12.3,5l1.1,12.9a5.08,5.08,0,0,0,5,5ZM105.6,207a35.2,35.2,0,0,1-12.8-12.9,35.72,35.72,0,0,1-3.4-8.1,35.1,35.1,0,0,1,0-18.2,34.64,34.64,0,0,1,3.4-8.2,35.69,35.69,0,0,1,12.8-12.8,34.64,34.64,0,0,1,8.2-3.4,31.1,31.1,0,0,1,9.1-1.1,39.75,39.75,0,0,1,9.1,1.1,39.38,39.38,0,0,1,8.2,3.4A35.69,35.69,0,0,1,153,159.6a34.49,34.49,0,0,1,3.5,26.4,34.22,34.22,0,0,1-3.5,8.1A36,36,0,0,1,140.2,207a39.38,39.38,0,0,1-8.2,3.4,35.1,35.1,0,0,1-18.2,0,45.65,45.65,0,0,1-8.2-3.4Z" fill="#c6c6c6"/>
      <path d="M287.1,227.3a3.54,3.54,0,0,0,3.5-3.5h0V211.9a3.54,3.54,0,0,0-3.5-3.5h0l-9.1-.5a42.55,42.55,0,0,0-3.6-8.5l5.9-6.9a3.5,3.5,0,0,0,0-5l-8.5-8.4a3.47,3.47,0,0,0-4.9-.1l-.1.1-6.8,6.1a37.88,37.88,0,0,0-8.6-3.5l-.8-9a3.56,3.56,0,0,0-3.5-3.6H235.2a3.5,3.5,0,0,0-3.5,3.6l-.5,9.1a34.09,34.09,0,0,0-8.6,3.6l-6.8-5.9a3.62,3.62,0,0,0-5.1,0l-8.4,8.4a3.5,3.5,0,0,0,0,5l6.2,6.8a37.88,37.88,0,0,0-3.5,8.6l-9.1.7a3.54,3.54,0,0,0-3.5,3.5h0v12a3.46,3.46,0,0,0,3.4,3.5h0l9.2.5a35.37,35.37,0,0,0,3.5,8.5l-5.9,6.9a3.5,3.5,0,0,0,0,5l8.5,8.5a3.5,3.5,0,0,0,5,0l6.8-6.2a37.88,37.88,0,0,0,8.6,3.5l.7,9a3.54,3.54,0,0,0,3.5,3.5h12a3.54,3.54,0,0,0,3.5-3.5l.4-9.1a34.09,34.09,0,0,0,8.6-3.6l6.9,5.9a3.5,3.5,0,0,0,5,0l8.4-8.5a3.47,3.47,0,0,0,.1-4.9l-.1-.1-6.1-6.8a37.88,37.88,0,0,0,3.5-8.6ZM265,224.5a24.65,24.65,0,0,1-11.4,14.7,28.65,28.65,0,0,1-5.7,2.4,23.21,23.21,0,0,1-12.8,0,20.34,20.34,0,0,1-5.7-2.4,25.85,25.85,0,0,1-9-9,23.49,23.49,0,0,1-2.3-5.7,22.93,22.93,0,0,1-.8-6.4,28,28,0,0,1,.8-6.4,23.49,23.49,0,0,1,2.3-5.7,25.85,25.85,0,0,1,9-9,28.65,28.65,0,0,1,5.7-2.4,34,34,0,0,1,6.4-.9,23.54,23.54,0,0,1,6.4.9,23.78,23.78,0,0,1,5.7,2.4,25.85,25.85,0,0,1,9,9,28.65,28.65,0,0,1,2.4,5.7,23,23,0,0,1,.9,6.4A35.22,35.22,0,0,1,265,224.5Z" fill="#c6c6c6"/>
    </g>
    <path d="M280.8,63.3l-8.9,8.8c-1.9,1.9-1.3,4,1.2,4.7l41.2,11c2.6.7,4.2-.8,3.4-3.4l-11-41.2c-.7-2.6-2.8-3.1-4.6-1.2l-8.8,8.8L276,33.4a4.77,4.77,0,0,0-6.8,0l-5.7,5.7a5,5,0,0,0,0,6.8Z" fill="#c6c6c6"/>
    <path d="M14.3,176.9A162.44,162.44,0,0,1,233.4,24.6,7.26,7.26,0,0,0,238.5,11,177.06,177.06,0,0,0,11,238.5a7.37,7.37,0,0,0,6.8,4.7,6.9,6.9,0,0,0,2.5-.4,7,7,0,0,0,4.3-9.1v-.1A157.6,157.6,0,0,1,14.3,176.9Z" fill="#c6c6c6"/>
    <path d="M342.5,115.2a7.26,7.26,0,0,0-13.6,5.1h0a165.61,165.61,0,0,1,10.2,56.6A162.44,162.44,0,0,1,120,329.1a7.25,7.25,0,0,0-9.3,4.2,7.11,7.11,0,0,0,4.2,9.2h.1a177.41,177.41,0,0,0,61.6,11h.1A176.89,176.89,0,0,0,342.5,115.2Z" fill="#c6c6c6"/>
  </g>
</svg>
