<?xml version="1.0" encoding="utf-8"?><svg xmlns="http://www.w3.org/2000/svg" viewBox="0 0 916.97 233.93"><defs><style>.cls-1{fill:#fff;}</style></defs><title>edx-white</title><g id="Layer_2" data-name="Layer 2"><g id="Layer_1_copy" data-name="Layer 1 copy"><path class="cls-1" d="M917,138H862.46c-6.08,0-12.89,1.16-18.17,0-4.43-1-9-6.78-13.3-10.19-13.22-10.54-26.78-20.56-39.44-30.58-21.69,14-36.35,38.32-70,40.77-17.54,1.28-37.06-1-56.72,0-.84-1.38,2.32-3.1,4-4.44,26.65-21.34,55.11-44.16,82-65.58C723,45.35,694.78,23.2,666.57,1c-.08-.36.16-.42.44-.44,18.92.85,37.71-1.13,54.51,0,33.22,2.23,49.13,24.9,70,39C814,26.32,829.81,2.86,863.79.59c16.15-1.09,34.43.81,52.73,0,.76,1.22-2.3,2.64-4,4Q878.16,32.15,843,60.42c-2,1.61-10.56,7.06-10.64,8.42-.07,1.59,8.57,7.21,10.64,8.87,24.32,19.48,51.32,40.92,74,60.27"/><path class="cls-1" d="M912.54,213.32c6.06,18.34-18.93,25-34.13,17.74.57-3.27,2-5.68,3.1-8.43,4.51,2.59,16.52,4.18,16.85-3.1s-13.19-7.44-17.29-13.3c-11-15.64,14.22-29.6,29.69-19.94-.4,3-1.84,5-2.65,7.53-3.62-2.38-15-4.32-15.51,2.67-.58,8.41,17,8,19.94,16.83"/><path class="cls-1" d="M787.56,209.78c4.39,5.38,3,14.26-1.33,18.61-6.46,6.47-20.85,6.89-30.59,2.67.27-3.44,2.15-5.25,2.67-8.43,4.63,2.48,17,4.23,17.28-3.1.27-7.61-17.54-7.72-19.5-17.73C752.81,185,773.91,179.55,788,186.29c-.37,3-2.14,4.65-2.65,7.53-3.65-2.32-15.59-4.57-15.52,3.11.08,7.46,13.24,7.38,17.73,12.85"/><path class="cls-1" d="M667,184.07a16.72,16.72,0,0,1,0,8.43H651.94c-1,2.95-.15,7.82-.44,11.52h13.74v8h-13.3c-1,3.26-.15,8.43-.44,12.42,4.28,1,10.48.14,15.51.44a16.68,16.68,0,0,1,0,8.42c-9.75-.3-20.68.59-29.7-.44V184.51c9-1,20-.14,29.7-.44"/><path class="cls-1" d="M604.52,23.2c1.68,6,.89,14.79.89,22.15V92.78c0,10.3.81,19.7-2.22,25.7-7.24,14.37-30.77,19-52.29,19.5-70.17,1.69-145-1.25-214.07,0V55.55c22.6.29,46.39-.59,68.25.44v53.18c43.58,1,89.09.15,133.4.45.2-26.39-.44-53.63.45-79.33-49.44-2.7-110.31,2.64-161.33-1.78-18.6-1.6-41.23-5.15-40.77-26.59,0-.63-.07-1.25.44-1.33H482.2c23,0,47.81-1.33,72.68,0,20.55,1.09,45.24,6.94,49.64,22.61"/><polygon class="cls-1" points="547.35 224.85 547.35 233.27 518.98 233.27 518.98 184.07 532.72 184.07 532.72 224.85 547.35 224.85"/><path class="cls-1" d="M427.68,224.85v8.42H398v-49.2h29.69v8.42H412.17V204h13.3c.94,1.86.22,5.39.44,8H412.17v12.42c4.29,1,10.49.15,15.51.44"/><path class="cls-1" d="M280.1,208.45c17.32,4.54,16.41-23.53,0-17.73Zm28.36,24.82H294.28c-5.63-6-9.12-14.22-14.18-20.83-.28,6.81.57,14.76-.44,20.83h-13.3c-1-14.62-.15-31.18-.44-46.54,14.33-6.15,42.6-4.76,40.77,13.3-.68,6.65-5.93,9.77-12.85,11.08,4.06,8.19,10.56,14,14.62,22.16"/><path class="cls-1" d="M269.46,55.1c-1.58,16.62-17.48,22-32.35,25.27-15.57,3.41-35,4-53.63,4H68.25v24.81c66,1.33,135.18-.44,201.21.89-2.64,20.55-23.76,25.37-44.76,27.47-22.57,2.26-47.55.45-71.8.45H80.66c-25.78,0-47.79-.55-63.82-8.42-5.91-2.9-13.29-9-15.07-15.07C-1.61,103,.89,82.71.89,68.84c0-7.53,0-15.77,0-23.49,0-7.53-.52-16.19.88-21.27C6,9,34.11,1.74,51.85.59c19.62-1.25,40.8,0,61.61,0h61.6c20.09,0,41.79-.9,59.39,2.22,17,3,32.91,8.9,35,26.59-66.18,1-134.29.15-201.21.44V54.22c66,1.33,135.18-.45,201.21.88"/><path class="cls-1" d="M172.84,184.07v49.2H159.11c.29-16.26-.59-33.68.44-49.2Z"/><path class="cls-1" d="M57.17,184.07H69.58c-3.75,16.94-8.53,32.84-12.85,49.2h-12c-2.9-10-6.37-19.33-8.42-30.14-2.62,10.23-5.73,20-8.42,30.14H15.51c-4.13-16.55-9.07-32.3-12.85-49.2H16c2.79,10.22,4.66,21.35,7.1,31.91,3.1-10.48,5.61-21.56,8.86-31.91h9.75c2.84,10.45,5.43,21.17,8.42,31.47,2.53-10.32,4.69-21,7.09-31.47"/></g></g></svg>