<?xml version="1.0" encoding="utf-8"?><svg xmlns="http://www.w3.org/2000/svg" style="width: 64px; height: 64px" viewBox="0 0 353.68 353.716"><defs><style>.a{fill:#c6c6c6;}</style></defs><g transform="translate(801.057 -63.022)"><path class="a" d="M-702.322,540.95a4.864,4.864,0,0,0,6.861-.034l5.61-5.587a4.9,4.9,0,0,0,0-6.85l-17.382-17.348,8.857-8.833c1.882-1.882,1.308-3.958-1.238-4.659L-740.791,486.6c-2.571-.7-4.085.883-3.407,3.419l11.024,41.165c.734,2.569,2.835,3.12,4.7,1.228l8.789-8.835Z" transform="translate(-21.108 -157.635)"/><path class="a" d="M-453.09,213.4a28.96,28.96,0,0,0-6.643-2.707l-.539-7.011a2.8,2.8,0,0,0-2.787-2.754h-9.19a2.79,2.79,0,0,0-2.777,2.754l-.344,7.045a32.814,32.814,0,0,0-6.642,2.81l-5.335-4.554a2.647,2.647,0,0,0-3.809,0l-6.563,6.539a2.8,2.8,0,0,0,0,3.867l4.784,5.22a27.732,27.732,0,0,0-2.708,6.632l-6.987.561a2.744,2.744,0,0,0-2.764,2.732v9.257a2.725,2.725,0,0,0,2.764,2.708l6.987.378a29.891,29.891,0,0,0,2.834,6.587l-4.566,5.369a2.7,2.7,0,0,0,0,3.89l6.5,6.482a2.72,2.72,0,0,0,3.889,0l5.243-4.738a28.519,28.519,0,0,0,6.655,2.73l.539,7.01a2.7,2.7,0,0,0,2.708,2.673h9.282a2.68,2.68,0,0,0,2.7-2.673l.344-7.113a29.483,29.483,0,0,0,6.632-2.719l5.323,4.567a2.866,2.866,0,0,0,3.9,0l6.494-6.587a2.656,2.656,0,0,0,0-3.866l-4.716-5.232a30.091,30.091,0,0,0,2.7-6.642l7-.539a2.709,2.709,0,0,0,2.708-2.754V234.1a2.709,2.709,0,0,0-2.708-2.753l-7.056-.322a31.681,31.681,0,0,0-2.764-6.63l4.5-5.359a2.655,2.655,0,0,0,0-3.866l-6.517-6.5a2.666,2.666,0,0,0-3.809,0Zm3.809,30.5a17.216,17.216,0,0,1-1.858,4.4,18.888,18.888,0,0,1-6.918,6.952,19.8,19.8,0,0,1-4.44,1.847,20.113,20.113,0,0,1-4.91.631,19.15,19.15,0,0,1-4.911-.631,18.534,18.534,0,0,1-4.439-1.847,19.122,19.122,0,0,1-6.976-6.952,18.893,18.893,0,0,1-1.8-4.4,19.294,19.294,0,0,1-.689-4.979,18.669,18.669,0,0,1,.689-4.887,18.034,18.034,0,0,1,1.8-4.44,18.59,18.59,0,0,1,6.976-6.942,18.068,18.068,0,0,1,4.439-1.847,19.162,19.162,0,0,1,4.911-.654,20.16,20.16,0,0,1,4.91.654,18.089,18.089,0,0,1,4.44,1.847,18.948,18.948,0,0,1,6.918,6.942,16.5,16.5,0,0,1,1.858,4.44,18.61,18.61,0,0,1,.621,4.887A19.243,19.243,0,0,1-449.281,243.895Z" transform="translate(-110.073 -51.342)"/><path class="a" d="M-654.687,373.279h17.025a5.029,5.029,0,0,0,5.061-5.013l.619-13.034a50.928,50.928,0,0,0,12.253-5.128l9.82,8.4a5.028,5.028,0,0,0,7.126,0l12.047-12a5.157,5.157,0,0,0,0-7.16l-8.79-9.648a54.244,54.244,0,0,0,5.048-12.253l12.861-1.01a5.056,5.056,0,0,0,5.049-5.047V294.333a5.078,5.078,0,0,0-5.049-5.049l-13-.6a52.957,52.957,0,0,0-5.127-12.206l8.443-9.834a5.125,5.125,0,0,0,0-7.17l-12.035-12.024a5.088,5.088,0,0,0-7.193,0l-9.615,8.73a56.027,56.027,0,0,0-12.253-4.956l-1.033-12.907a5.067,5.067,0,0,0-5.06-5.06h-17.025a5.051,5.051,0,0,0-5.048,5.06l-.62,13a54.607,54.607,0,0,0-12.184,5.116l-9.879-8.4a5.117,5.117,0,0,0-7.148,0l-12.046,12.024a5.181,5.181,0,0,0,0,7.182l8.8,9.637a50.486,50.486,0,0,0-4.991,12.253l-12.942,1a5.045,5.045,0,0,0-5.025,5.025v17.05a5.038,5.038,0,0,0,5.025,5.059l13.1.654a53.47,53.47,0,0,0,5.025,12.184l-8.354,9.82a5.093,5.093,0,0,0,0,7.126l12.025,12.058a5.09,5.09,0,0,0,7.124,0l9.615-8.789a56,56,0,0,0,12.264,5.036l1.1,12.908A4.96,4.96,0,0,0-654.687,373.279Zm-9.132-39.914a34.89,34.89,0,0,1-12.792-12.85,34.561,34.561,0,0,1-3.407-8.134,36.405,36.405,0,0,1-1.159-9.1,36.609,36.609,0,0,1,1.159-9.1,35.116,35.116,0,0,1,3.407-8.157,34.777,34.777,0,0,1,12.792-12.781,38.61,38.61,0,0,1,8.169-3.431,35.854,35.854,0,0,1,9.064-1.147,35.2,35.2,0,0,1,9.063,1.147,35.657,35.657,0,0,1,8.169,3.431,34.72,34.72,0,0,1,12.8,12.781,34.8,34.8,0,0,1,3.454,8.157,36.123,36.123,0,0,1,1.181,9.1,35.921,35.921,0,0,1-1.181,9.1,34.255,34.255,0,0,1-3.454,8.134,34.832,34.832,0,0,1-12.8,12.85,37.123,37.123,0,0,1-8.169,3.361,35.137,35.137,0,0,1-9.063,1.2,35.4,35.4,0,0,1-9.064-1.2A40.3,40.3,0,0,1-663.819,333.365Z" transform="translate(-31.444 -63.379)"/><path class="a" d="M-399.483,390.474a3.519,3.519,0,0,0,3.522-3.534V375.008a3.519,3.519,0,0,0-3.522-3.533l-9.133-.47a40.329,40.329,0,0,0-3.614-8.5l5.9-6.941a3.56,3.56,0,0,0,0-5.013l-8.456-8.434a3.462,3.462,0,0,0-4.967,0l-6.781,6.149a38.456,38.456,0,0,0-8.581-3.544l-.77-9.006a3.547,3.547,0,0,0-3.522-3.569h-11.908a3.548,3.548,0,0,0-3.522,3.569l-.482,9.132a35.363,35.363,0,0,0-8.594,3.592l-6.837-5.921a3.594,3.594,0,0,0-5.06,0l-8.445,8.444a3.562,3.562,0,0,0,0,5.014l6.173,6.78a36.65,36.65,0,0,0-3.545,8.594l-9.052.711a3.463,3.463,0,0,0-3.454,3.51v11.979a3.477,3.477,0,0,0,3.454,3.511l9.2.46a37.037,37.037,0,0,0,3.522,8.547l-5.886,6.907a3.546,3.546,0,0,0,0,5l8.455,8.467a3.631,3.631,0,0,0,5.036,0l6.793-6.161a37.321,37.321,0,0,0,8.581,3.522l.676,9.04a3.568,3.568,0,0,0,3.546,3.534H-438.8a3.543,3.543,0,0,0,3.533-3.534l.425-9.133a36.879,36.879,0,0,0,8.571-3.591l6.907,5.875a3.558,3.558,0,0,0,5.012,0l8.433-8.456a3.448,3.448,0,0,0,0-4.957l-6.149-6.792a37.324,37.324,0,0,0,3.522-8.582Zm-22.156-2.8a25.7,25.7,0,0,1-2.352,5.657,24.258,24.258,0,0,1-8.982,9.006,23.548,23.548,0,0,1-5.749,2.352,23.733,23.733,0,0,1-6.367.86,24.185,24.185,0,0,1-6.368-.86,24.836,24.836,0,0,1-5.735-2.352,25.373,25.373,0,0,1-9.006-9.006,24.708,24.708,0,0,1-2.341-5.691,24.5,24.5,0,0,1-.826-6.368,24.181,24.181,0,0,1,.826-6.367,25.47,25.47,0,0,1,2.341-5.714,25.758,25.758,0,0,1,9.006-8.984,25.42,25.42,0,0,1,5.735-2.4,26.8,26.8,0,0,1,6.368-.86,26.243,26.243,0,0,1,6.367.86,24.055,24.055,0,0,1,5.749,2.4,24.606,24.606,0,0,1,8.982,8.984,26.09,26.09,0,0,1,2.352,5.714,23.658,23.658,0,0,1,.85,6.367A24.422,24.422,0,0,1-421.639,387.674Z" transform="translate(-114.264 -100.193)"/><path class="a" d="M-364.619,145.355l-8.857,8.835c-1.859,1.859-1.319,3.958,1.238,4.657l41.177,11c2.559.689,4.164-.826,3.408-3.4l-11.026-41.166c-.7-2.559-2.833-3.132-4.636-1.216l-8.845,8.812-17.312-17.36a4.885,4.885,0,0,0-6.85,0L-382,121.2a4.869,4.869,0,0,0,0,6.8Z" transform="translate(-155.496 -19.025)"/><path class="a" d="M-786.611,239.937a161.765,161.765,0,0,1,47.567-114.9A161.782,161.782,0,0,1-624.187,77.456a162.034,162.034,0,0,1,56.6,10.187,7.272,7.272,0,0,0,9.293-4.267,7.27,7.27,0,0,0-4.246-9.3,178.021,178.021,0,0,0-61.644-11.05A176.439,176.439,0,0,0-749.3,114.835a176.393,176.393,0,0,0-51.756,125.1,177.734,177.734,0,0,0,10.98,61.6,7.312,7.312,0,0,0,6.792,4.692,7.34,7.34,0,0,0,2.5-.412,7.148,7.148,0,0,0,4.278-9.259A162.552,162.552,0,0,1-786.611,239.937Z" transform="translate(0 0)"/><path class="a" d="M-392.864,243.8a7.252,7.252,0,0,0-9.283-4.246,7.222,7.222,0,0,0-4.291,9.283,163.583,163.583,0,0,1,10.165,56.619,161.943,161.943,0,0,1-47.6,114.845,161.8,161.8,0,0,1-114.88,47.6,163.432,163.432,0,0,1-56.6-10.154,7.239,7.239,0,0,0-9.283,4.233,7.184,7.184,0,0,0,4.3,9.271,176.9,176.9,0,0,0,61.576,11.037h.081A176.359,176.359,0,0,0-433.64,430.5a175.976,175.976,0,0,0,51.777-125.045A178.115,178.115,0,0,0-392.864,243.8Z" transform="translate(-65.514 -65.555)"/></g></svg>