<?xml version="1.0" encoding="utf-8"?>
<!-- Generator: Adobe Illustrator 22.1.0, SVG Export Plug-In . SVG Version: 6.00 Build 0)  -->
<svg version="1.1" xmlns="http://www.w3.org/2000/svg" width="59.42" height="45.11" x="0px" y="0px"
	 viewBox="0 0 59.4 45.1" style="enable-background:new 0 0 59.4 45.1;" xml:space="preserve">
<style type="text/css">
	.st0{fill:#FF7A11;}
</style>
<g id="Group_69" transform="translate(-963 -2185.999)">
	<circle id="Elipse_2" cx="1010.1" cy="2218.1" r="11.9" style="fill: transparent;" />
	<g id="Objeto_inteligente_vectorial" transform="translate(963 2185.999)">
		<path id="Color_Overlay" class="st0" d="M33.7,33.6H0V0h48.4v19.3c7.1,1,12,7.6,11,14.7s-7.6,12-14.7,11
			C38.9,44.1,34.3,39.5,33.7,33.6L33.7,33.6z M36.2,32.1c0,0.5,0,1,0.1,1.5c0.8,5.6,6.1,9.5,11.7,8.7c5.6-0.8,9.5-6.1,8.7-11.7
			c-0.6-4.4-4-7.8-8.3-8.6c-0.6-0.1-1.3-0.2-1.9-0.2C40.8,21.8,36.2,26.4,36.2,32.1L36.2,32.1z M2.6,31h31.1c0-0.2,0-0.4,0.1-0.5
			c0,0,0-0.1,0-0.1c0-0.1,0-0.2,0.1-0.4c0-0.1,0-0.2,0.1-0.4c0-0.1,0.1-0.3,0.1-0.4c0-0.2,0.1-0.4,0.1-0.6s0.1-0.4,0.2-0.6
			s0.1-0.4,0.2-0.6c0.2-0.5,0.4-1.1,0.7-1.6c0.2-0.3,0.4-0.7,0.6-1c0.1-0.2,0.2-0.3,0.3-0.5s0.2-0.3,0.3-0.4c0,0,0,0,0,0
			c0.2-0.3,0.5-0.6,0.7-0.9c0.1-0.1,0.3-0.3,0.4-0.4c0.3-0.3,0.6-0.5,0.9-0.8c0.3-0.2,0.6-0.5,0.9-0.7c0,0,0,0,0,0
			c0.3-0.2,0.6-0.4,0.9-0.5c0.2-0.1,0.4-0.2,0.6-0.3c0.2-0.1,0.3-0.2,0.5-0.2s0.3-0.1,0.5-0.2c0.1-0.1,0.3-0.1,0.4-0.2
			s0.3-0.1,0.5-0.2c0.1,0,0.3-0.1,0.4-0.1c0.1,0,0.1,0,0.2-0.1c0.2,0,0.4-0.1,0.5-0.1s0.4-0.1,0.6-0.1c0.3,0,0.5-0.1,0.8-0.1
			c0.2,0,0.4,0,0.6,0v-5.3H2.6V31z M2.6,8.1h43.3V2.6H2.6V8.1z M45.2,38v-4.5h-4.5v-2.6h4.5v-4.5h2.6v4.5h4.5v2.6h-4.5V38L45.2,38z"
			/>
	</g>
</g>
</svg>
