<?xml version="1.0" encoding="utf-8"?><svg xmlns="http://www.w3.org/2000/svg" width="59px" height="45px" viewBox="0 0 59.7 45.12">
  <title>LITLE</title>
  <g>
    <path d="M33.73,33.73H0V0H48.62V19.29A13,13,0,1,1,44.82,45,12.47,12.47,0,0,1,33.73,33.73Z" fill="#ff7a11"/>
    <path d="M36.16,32.21a5.81,5.81,0,0,0,.15,1.52,10.36,10.36,0,0,0,20.51-2.89,10.16,10.16,0,0,0-8.36-8.66,8.05,8.05,0,0,0-2-.15A10.22,10.22,0,0,0,36.16,32.21Z"/>
    <path d="M2.58,31.15H33.73V29.78a.57.57,0,0,1,.15-.46c0-.15.15-.45.15-.61s.15-.3.15-.6.16-.31.16-.61A4.62,4.62,0,0,1,35.1,26a8.6,8.6,0,0,1,.6-1.06c.15-.16.15-.31.31-.46s.15-.3.3-.46h0c.3-.3.46-.6.76-.91l.46-.45c.3-.31.6-.46.91-.76a3,3,0,0,1,.91-.61h0c.3-.15.61-.46.91-.61s.46-.15.61-.3.3-.15.45-.3a.56.56,0,0,1,.46-.16c.15,0,.3-.15.46-.15s.3-.15.45-.15.31-.15.46-.15h.15c.15,0,.3-.16.61-.16.15,0,.3-.15.6-.15S45,19,45.27,19h.61V13.67H2.43V31.15Z"/>
    <rect x="2.58" y="2.73" width="43.45" height="5.47"/>
    <polygon points="45.27 38.13 45.27 33.58 40.72 33.58 40.72 30.99 45.27 30.99 45.27 26.43 47.86 26.43 47.86 30.99 52.41 30.99 52.41 33.58 47.86 33.58 47.86 38.13 45.27 38.13" fill="#ff7a11"/>
  </g>
</svg>
