<?xml version="1.0" encoding="utf-8"?><svg xmlns="http://www.w3.org/2000/svg" width="64px" height="64px" viewBox="0 0 64.31 64.5">
  <title>LITLE</title>
  <ellipse cx="32.16" cy="32.25" rx="30.49" ry="30.32"/>
  <g>
    <path d="M14,58.4a1,1,0,0,0,1.3,0l1-1a1,1,0,0,0,0-1.3l-3.2-3.2,1.6-1.6a.38.38,0,0,0,.1-.6.52.52,0,0,0-.4-.2l-7.5-2c-.5-.1-.7.2-.6.6l2,7.5c0,.3.2.5.5.4a.76.76,0,0,0,.4-.2l1.6-1.6Z" fill="#ff7a11"/>
    <path d="M43.2,18a6.12,6.12,0,0,0-1.2-.5l-.1-1.3a.47.47,0,0,0-.5-.5H39.7a.47.47,0,0,0-.5.5l-.1,1.3a6.12,6.12,0,0,0-1.2.5l-1-.8a.48.48,0,0,0-.7,0h0L35,18.4a.48.48,0,0,0,0,.7l.9,1a6.12,6.12,0,0,0-.5,1.2l-1.3.1a.47.47,0,0,0-.5.5v1.7a.47.47,0,0,0,.5.5l1.3.1a6.12,6.12,0,0,0,.5,1.2l-.8,1a.48.48,0,0,0,0,.7h0l1.2,1.2a.48.48,0,0,0,.7,0h0l1-.9a6.12,6.12,0,0,0,1.2.5l.1,1.3a.47.47,0,0,0,.5.5h1.7a.47.47,0,0,0,.5-.5h0l.1-1.3a6.12,6.12,0,0,0,1.2-.5l1,.8a.48.48,0,0,0,.7,0L46.2,27a.48.48,0,0,0,0-.7h0l-.9-1a6.12,6.12,0,0,0,.5-1.2l1.3-.1a.47.47,0,0,0,.5-.5h0V21.8a.47.47,0,0,0-.5-.5h0l-1.3-.1a6.12,6.12,0,0,0-.5-1.2l.8-1a.48.48,0,0,0,0-.7h0l-1.2-1.2a.48.48,0,0,0-.7,0h0Zm.7,5.6a6.89,6.89,0,0,1-.3.8,3.25,3.25,0,0,1-1.3,1.3c-.3.1-.5.3-.8.3a4.1,4.1,0,0,1-1.8,0,6.89,6.89,0,0,1-.8-.3,3.25,3.25,0,0,1-1.3-1.3c-.1-.3-.3-.5-.3-.8a2.77,2.77,0,0,1-.1-.9,2.77,2.77,0,0,1,.1-.9,6.89,6.89,0,0,1,.3-.8,3.25,3.25,0,0,1,1.3-1.3c.3-.1.5-.3.8-.3a4.1,4.1,0,0,1,1.8,0,6.89,6.89,0,0,1,.8.3A3.25,3.25,0,0,1,43.6,21a1.33,1.33,0,0,1,.3.8,2.77,2.77,0,0,1,.1.9,1.41,1.41,0,0,1-.1.9Z" fill="#ff7a11"/>
    <path d="M20.8,45h3.1a.9.9,0,0,0,.9-.9h0l.1-2.4a8.49,8.49,0,0,0,2.2-.9l1.8,1.5a.85.85,0,0,0,1.3,0h0l2.2-2.2a.85.85,0,0,0,0-1.3L30.8,37a10.2,10.2,0,0,0,.9-2.2l2.3-.2a.9.9,0,0,0,.9-.9V30.6a.9.9,0,0,0-.9-.9l-2.4-.1a8.49,8.49,0,0,0-.9-2.2l1.5-1.8a.85.85,0,0,0,0-1.3L30,22.1a.85.85,0,0,0-1.3,0l-1.8,1.6a10.2,10.2,0,0,0-2.2-.9l-.2-2.4a.9.9,0,0,0-.9-.9H20.5a.9.9,0,0,0-.9.9h0l-.1,2.4a8.49,8.49,0,0,0-2.2.9l-1.8-1.5a.85.85,0,0,0-1.3,0L12,24.4a.85.85,0,0,0,0,1.3l1.6,1.8a10.2,10.2,0,0,0-.9,2.2l-2.4.2a.9.9,0,0,0-.9.9v3.1a.9.9,0,0,0,.9.9h0l2.4.1a8.49,8.49,0,0,0,.9,2.2l-1.5,1.8a.85.85,0,0,0,0,1.3l2.2,2.2a.85.85,0,0,0,1.3,0l1.8-1.6a10.2,10.2,0,0,0,2.2.9l.2,2.4a1.06,1.06,0,0,0,1,.9Zm-1.7-7.3a6.33,6.33,0,0,1-2.3-2.3,4.71,4.71,0,0,1-.6-1.5,8.81,8.81,0,0,1-.2-1.7,9.85,9.85,0,0,1,.2-1.7,9.38,9.38,0,0,1,.6-1.5,6.33,6.33,0,0,1,2.3-2.3,4.71,4.71,0,0,1,1.5-.6,8.81,8.81,0,0,1,1.7-.2,9.85,9.85,0,0,1,1.7.2,9.38,9.38,0,0,1,1.5.6A6.33,6.33,0,0,1,27.8,29a4.71,4.71,0,0,1,.6,1.5,8.81,8.81,0,0,1,.2,1.7,9.85,9.85,0,0,1-.2,1.7,9.38,9.38,0,0,1-.6,1.5,6.33,6.33,0,0,1-2.3,2.3,4.71,4.71,0,0,1-1.5.6,8.81,8.81,0,0,1-1.7.2,9.85,9.85,0,0,1-1.7-.2,4.71,4.71,0,0,1-1.5-.6Z" fill="#ff7a11"/>
    <path d="M52.3,41.4a.58.58,0,0,0,.6-.6h0V38.6a.58.58,0,0,0-.6-.6h0l-1.7-.1a11.11,11.11,0,0,0-.7-1.6L51,35a.56.56,0,0,0,0-.9l-1.5-1.5a.56.56,0,0,0-.9,0h0l-1.2,1.1a4.42,4.42,0,0,0-1.6-.6l-.1-1.6a.75.75,0,0,0-.6-.7H42.9c-.4,0-.6.3-.6.7h0l-.1,1.7a5.58,5.58,0,0,0-1.6.7l-1.2-1.1a.56.56,0,0,0-.9,0L37,34.3a.56.56,0,0,0,0,.9l1.1,1.2a4.42,4.42,0,0,0-.6,1.6l-1.7.1a.65.65,0,0,0-.6.6h0v2.2a.58.58,0,0,0,.6.6h0l1.7.1a10.41,10.41,0,0,0,.6,1.6L37,44.5a.56.56,0,0,0,0,.9l1.5,1.5a.75.75,0,0,0,.9,0l1.2-1.1a4.42,4.42,0,0,0,1.6.6l.1,1.6a.58.58,0,0,0,.6.6h2.2a.58.58,0,0,0,.6-.6l.1-1.7a11.11,11.11,0,0,0,1.6-.7l1.3,1.1a.56.56,0,0,0,.9,0l1.5-1.5a.63.63,0,0,0,0-.9h0L50,43.1a4.42,4.42,0,0,0,.6-1.6Zm-4.1-.5a3,3,0,0,1-.4,1,4.09,4.09,0,0,1-1.6,1.6,4.18,4.18,0,0,1-1,.4,3.7,3.7,0,0,1-2.4,0,3,3,0,0,1-1-.4,4.89,4.89,0,0,1-1.6-1.6,4.18,4.18,0,0,1-.4-1,5,5,0,0,1-.2-1.2,2.54,2.54,0,0,1,.2-1.2,3,3,0,0,1,.4-1,4.89,4.89,0,0,1,1.6-1.6,4.18,4.18,0,0,1,1-.4,3.7,3.7,0,0,1,2.4,0,3,3,0,0,1,1,.4,4.89,4.89,0,0,1,1.6,1.6,4.18,4.18,0,0,1,.4,1,5,5,0,0,1,.2,1.2,3.73,3.73,0,0,1-.2,1.2Z" fill="#ff7a11"/>
    <path d="M51.1,11.5l-1.6,1.6a.38.38,0,0,0-.1.6.52.52,0,0,0,.4.2l7.5,2c.5.1.8-.2.6-.6l-2-7.5c-.1-.5-.5-.6-.8-.2L53.5,9.2,50.3,6A1,1,0,0,0,49,6L48,7a.91.91,0,0,0,0,1.2Z" fill="#ff7a11"/>
    <path d="M2.5,32.3A29.7,29.7,0,0,1,32.2,2.6,28.06,28.06,0,0,1,42.5,4.5a1.3,1.3,0,0,0,1.7-.8A1.3,1.3,0,0,0,43.4,2,33.06,33.06,0,0,0,32.2,0,31.91,31.91,0,0,0,9.4,9.5,31.58,31.58,0,0,0,0,32.3,33.06,33.06,0,0,0,2,43.5a1.4,1.4,0,0,0,1.2.9.9.9,0,0,0,.5-.1,1.34,1.34,0,0,0,.8-1.7h0A26.24,26.24,0,0,1,2.5,32.3Z" fill="#ff7a11"/>
    <path d="M62.4,21a1.38,1.38,0,0,0-1.7-.8,1.34,1.34,0,0,0-.8,1.7h0a30.29,30.29,0,0,1,1.9,10.3A29.7,29.7,0,0,1,32.1,61.9,28.06,28.06,0,0,1,21.8,60a1.33,1.33,0,1,0-.9,2.5h0a33.06,33.06,0,0,0,11.2,2h0a32.23,32.23,0,0,0,22.8-9.4,31.58,31.58,0,0,0,9.4-22.8A30.87,30.87,0,0,0,62.4,21Z" fill="#ff7a11"/>
  </g>
</svg>
