<?xml version="1.0" encoding="utf-8"?><svg xmlns="http://www.w3.org/2000/svg" width="54px" height="51px" viewBox="0 0 54 51.08">
  <title>LITLE</title>
  <g>
    <path d="M1.7,20.79V10.14A4.54,4.54,0,0,1,6.24,5.6H47.73a4.54,4.54,0,0,1,4.54,4.54V20.79Z"/>
    <path d="M6.2,51.08A6.19,6.19,0,0,1,0,44.88V9.65a6.19,6.19,0,0,1,6.2-6.2H9.63a1.63,1.63,0,0,1,0,3.26H6.2A2.74,2.74,0,0,0,3.43,9.48h0v9.63H50.74V9.48A2.75,2.75,0,0,0,48,6.71H44.54a1.63,1.63,0,0,1,0-3.26H47.8A6.19,6.19,0,0,1,54,9.65V44.72a6.19,6.19,0,0,1-6.2,6.2H6.2Z" fill="#ff7a11"/>
    <path d="M3.43,44.88A2.75,2.75,0,0,0,6.2,47.66H47.8a2.75,2.75,0,0,0,2.77-2.78V22.7H3.26Z"/>
    <path d="M34.91,13.07a4.9,4.9,0,0,1,3.43-4.73V1.82a1.71,1.71,0,1,1,3.42-.17V8.34a5.11,5.11,0,1,1-6.85,4.73Z" fill="#ff7a11"/>
    <path d="M38.34,13.07A1.63,1.63,0,1,0,40,11.44a1.54,1.54,0,0,0-1.63,1.63Z"/>
    <path d="M9,13.07A4.9,4.9,0,0,1,12.4,8.34V1.82A1.78,1.78,0,0,1,14,0c1-.16,1.63.65,1.79,1.63V8.34A5.11,5.11,0,0,1,12.4,18,5.33,5.33,0,0,1,9,13.07Z" fill="#ff7a11"/>
    <path d="M12.4,13.07A1.63,1.63,0,1,0,14,11.44a1.63,1.63,0,0,0-1.63,1.63Z"/>
    <path d="M18.6,6.87a1.63,1.63,0,0,1,0-3.26H35.4a1.63,1.63,0,1,1,0,3.26Z" fill="#ff7a11"/>
  </g>
</svg>
