<?xml version="1.0" encoding="utf-8"?><svg xmlns="http://www.w3.org/2000/svg" width="79px" height="46px" viewBox="0 0 82.42 47.85">
  <title>LITLE</title>
  <g>
    <path d="M81.81,45.31,72,38.24a1.08,1.08,0,0,0,.18-.72V1.45A1.55,1.55,0,0,0,70.75,0H13.3a1.42,1.42,0,0,0-1.45,1.45V37.34l-11.24,8a1.47,1.47,0,0,0-.54,1.63,1.42,1.42,0,0,0,1.45.91H80.9a1.42,1.42,0,0,0,1.45-.91A1.47,1.47,0,0,0,81.81,45.31Z" fill="#ff7a11"/>
    <polygon points="14.75 2.9 69.3 2.9 69.3 36.07 68.4 36.07 14.57 36.07 14.57 2.9 14.75 2.9"/>
    <polygon points="5.87 45.13 14.39 38.97 67.85 38.97 76.37 45.13 5.87 45.13"/>
  </g>
</svg>
