<?xml version="1.0" encoding="utf-8"?><svg xmlns="http://www.w3.org/2000/svg" width="67.887" height="60.209" viewBox="0 0 67.887 60.209">
  <path id="Network" d="M172.754,289.99a5.089,5.089,0,0,0-4.783,3.405H157.777a.575.575,0,0,0-.17.017l-5.36-9.311a.971.971,0,0,0,.119-.153l5.139-8.835a4.4,4.4,0,0,0,.95.1,5.109,5.109,0,0,0,2.561-9.516,5.037,5.037,0,0,0-2.561-.7,5.112,5.112,0,0,0-3.884,8.409l-5.14,8.835a.193.193,0,0,0-.051.136H138.457a.444.444,0,0,0-.051-.136l-5.123-8.835a5.4,5.4,0,0,0,1.035-2.009,5.1,5.1,0,0,0-4.936-6.4,5.037,5.037,0,0,0-2.561.7,5.108,5.108,0,0,0,2.578,9.516,4.248,4.248,0,0,0,.933-.1l5.14,8.835a.44.44,0,0,0,.136.17l-5.36,9.3a.637.637,0,0,0-.187-.017H119.883a5.106,5.106,0,1,0,0,3.4H130.06a.636.636,0,0,0,.187-.017l5.36,9.294a.424.424,0,0,0-.136.17l-5.14,8.852a4.245,4.245,0,0,0-.933-.1,5.11,5.11,0,0,0-2.578,9.517,5.037,5.037,0,0,0,2.561.7,5.111,5.111,0,0,0,4.936-6.418,5,5,0,0,0-1.052-1.991l5.14-8.835a.441.441,0,0,0,.051-.137H149.38a.441.441,0,0,0,.051.137l5.14,8.835a4.77,4.77,0,0,0-1.035,1.991,5.012,5.012,0,0,0,.526,3.882,5.089,5.089,0,0,0,4.393,2.536,5.037,5.037,0,0,0,2.561-.7A5.109,5.109,0,0,0,158.455,315a4.407,4.407,0,0,0-.95.1l-5.14-8.852a.934.934,0,0,0-.119-.154l5.36-9.311a.579.579,0,0,0,.17.017h10.194a5.089,5.089,0,1,0,4.783-6.808Zm-15.775-20.734a1.7,1.7,0,0,1,2.934,1.706,1.736,1.736,0,0,1-2.324.612,1.713,1.713,0,0,1-.611-2.318Zm-26.732,2.315a1.736,1.736,0,0,1-2.324-.612,1.7,1.7,0,1,1,2.324.612ZM115.083,296.8a1.7,1.7,0,1,1,1.7-1.7,1.7,1.7,0,0,1-1.7,1.7Zm15.775,24.155a1.735,1.735,0,0,1-2.324.613,1.7,1.7,0,0,1-.611-2.332,1.722,1.722,0,0,1,1.476-.834,1.686,1.686,0,0,1,1.459,2.549Zm26.732-2.331a1.727,1.727,0,0,1,2.324.612,1.7,1.7,0,0,1-.611,2.332,1.632,1.632,0,0,1-.848.238,1.7,1.7,0,0,1-1.476-.848,1.733,1.733,0,0,1,.611-2.339Zm-8.294-14.2H138.559L133.2,295.1l5.36-9.311H149.3l5.36,9.311Zm23.459-7.626a1.7,1.7,0,1,1,1.7-1.7A1.7,1.7,0,0,1,172.754,296.8Z" transform="translate(-109.962 -265)" fill="#ff7a11" fill-rule="evenodd"/>
</svg>
