<?xml version="1.0" encoding="utf-8"?>
<!-- Generator: Adobe Illustrator 22.1.0, SVG Export Plug-In . SVG Version: 6.00 Build 0)  -->
<svg version="1.1" xmlns="http://www.w3.org/2000/svg" width="54" height="51" x="0px" y="0px"
	 viewBox="0 0 54 51" style="enable-background:new 0 0 54 51;" xml:space="preserve">
<style type="text/css">
	.st0{fill:#FF7A11;}
</style>
<g id="Objeto_inteligente_vectorial" transform="translate(-717 -2185)">
	<path id="Color_Overlay" class="st0" d="M723.2,2236c-3.4,0-6.2-2.8-6.2-6.3v-35.1c0-3.4,2.8-6.2,6.2-6.3h3.4
		c0.9,0,1.7,0.7,1.7,1.7c0,0.9-0.7,1.7-1.7,1.7c0,0,0,0,0,0h-3.4c-1.5,0-2.8,1.2-2.8,2.8c0,0,0,0.1,0,0.1v9.6h47.3v-9.6
		c0-1.5-1.2-2.8-2.7-2.8c0,0-0.1,0-0.1,0h-3.4c-0.9,0-1.7-0.7-1.7-1.7c0-0.9,0.7-1.7,1.7-1.7c0,0,0,0,0,0h3.4c3.4,0,6.2,2.8,6.2,6.3
		v35.1c0,3.4-2.8,6.2-6.2,6.3H723.2z M720.4,2229.7c0,1.5,1.2,2.8,2.7,2.9c0,0,0.1,0,0.1,0h41.6c1.5,0,2.8-1.2,2.8-2.8
		c0,0,0-0.1,0-0.1v-22.1h-47.3L720.4,2229.7z M751.9,2198c0-2.1,1.4-4.1,3.4-4.8v-6.5c0-0.9,0.7-1.7,1.6-1.7s1.7,0.7,1.7,1.6
		c0,0,0,0.1,0,0.1v6.5c2.7,0.9,4.1,3.8,3.1,6.5c-0.9,2.7-3.8,4.1-6.5,3.1C753.3,2202.1,751.9,2200.2,751.9,2198z M755.3,2198
		c0,0.9,0.8,1.7,1.7,1.7c0.9,0,1.7-0.8,1.7-1.7c0-0.9-0.8-1.7-1.7-1.7C756,2196.3,755.3,2197.1,755.3,2198
		C755.3,2198,755.3,2198,755.3,2198L755.3,2198z M726,2198c0-2.1,1.4-4.1,3.4-4.8v-6.5c0-0.9,0.7-1.7,1.6-1.7s1.7,0.7,1.7,1.6
		c0,0,0,0.1,0,0.1v6.5c2.7,0.9,4.1,3.8,3.1,6.5c-0.9,2.7-3.8,4.1-6.5,3.1C727.4,2202.1,726,2200.2,726,2198z M729.4,2198
		c0,0.9,0.8,1.7,1.7,1.7c0.9,0,1.7-0.8,1.7-1.7c0-0.9-0.8-1.7-1.7-1.7C730.2,2196.3,729.4,2197.1,729.4,2198
		C729.4,2198,729.4,2198,729.4,2198L729.4,2198z M735.6,2191.8c-0.9,0-1.7-0.8-1.7-1.7c0-0.9,0.8-1.7,1.7-1.7h16.9
		c0.9,0,1.7,0.8,1.7,1.7c0,0.9-0.8,1.7-1.7,1.7H735.6z"/>
</g>
</svg>
