<svg xmlns="http://www.w3.org/2000/svg" width="33.921" height="42.401" viewBox="0 0 33.921 42.401">
  <path id="path7" d="M13.665,6A5.671,5.671,0,0,0,8,11.665V42.737A5.671,5.671,0,0,0,13.665,48.4H36.256a5.673,5.673,0,0,0,5.665-5.665V18.781a1.4,1.4,0,0,0-.039-.182,1.286,1.286,0,0,0-.033-.177,1.427,1.427,0,0,0-.342-.64L30.2,6.475c-.04-.04-.1-.043-.138-.077a1.436,1.436,0,0,0-.983-.4Zm0,2.827H27.787v5.742a5.629,5.629,0,0,0,5.62,5.626h5.687V42.737a2.843,2.843,0,0,1-2.838,2.838H13.665a2.843,2.843,0,0,1-2.838-2.838V11.665A2.843,2.843,0,0,1,13.665,8.827Zm16.949,2.1c1.911,1.9,4.506,4.484,6.471,6.437H33.408a2.8,2.8,0,0,1-2.794-2.8ZM32.877,30.8l-1.943,2.054,1.833,1.734H26.926v2.827h5.9l-1.9,1.855L32.889,41.3,37.3,37.011a1.408,1.408,0,0,0-.011-2.037Z" transform="translate(-8 -6)" fill="#fff"/>
</svg>
